<svg id="b46f070a-5027-44c5-9173-f05f13ab231f" data-name="Capa 1" xmlns="http://www.w3.org/2000/svg" xmlns:xlink="http://www.w3.org/1999/xlink" viewBox="0 0 1351.1 971.2"><defs><style>.a71c33a9-0432-4f59-a7a7-bf03565dd8eb{fill:none;}.a00b0e36-a3c1-48d1-9b53-705ca81692af,.bc7e6d7e-635c-4f51-a6f7-e1bc0d59bf13{fill:#fff;}.a00b0e36-a3c1-48d1-9b53-705ca81692af{stroke:#fff;stroke-miterlimit:10;}.edb46229-58b3-48ac-87cf-b5687340c05a{clip-path:url(#aaaa1aa9-e22b-45e4-88ba-778c9514cb6c);}</style><clipPath id="aaaa1aa9-e22b-45e4-88ba-778c9514cb6c"><rect class="a71c33a9-0432-4f59-a7a7-bf03565dd8eb" x="211.1" y="23" width="996.1" height="373.46"/></clipPath></defs><path class="a00b0e36-a3c1-48d1-9b53-705ca81692af" d="M402.8,445.3c4.2-18.9,11-32.5,20.2-40.8s21.9-12.4,37.8-12.2a45,45,0,0,1,20.2,4.5,43.4,43.4,0,0,1,15.4,12.1,47.9,47.9,0,0,1,9.2,18.3,57.3,57.3,0,0,1,1.2,22.8c-1.6,12.6-2.8,24.6-3.3,35.8s-.5,22.6,0,34,1.6,23.5,3.2,35.9,3.7,26.5,6.4,41.8c.9,4.8,0,8.6-2.6,11.4s-6.4,4-11.2,4H437.8c-4.8,0-8.5-1.3-11.2-4s-3.5-6.6-2.6-11.4c.4-2.9,1.2-7.9,2.5-14.8s2.5-14.9,3.8-23.8,2.3-18.4,3.1-28.4A211.3,211.3,0,0,0,434,502c-.4-9-2.5-15.7-6.3-20.2s-8.1-6.6-12.9-6.6-8.5,2-12.3,6-6.1,10.1-6.9,18.3.1,14.7.5,22.1.9,14.9,1.7,22.8,1.9,16.2,3.1,24.9,2.8,18.1,4.5,28.2q1.2,7.2-2.7,11.4c-2.6,2.7-6.4,4-11.2,4H330c-4.8,0-8.5-1.3-11.1-4s-3.6-6.6-2.7-11.4c.4-2.9,1.2-7.9,2.5-14.8s2.5-14.9,3.8-23.8,2.3-18.4,3.1-28.4a211.8,211.8,0,0,0,.7-28.5c-.5-9-2.6-15.8-6.3-20.3s-8.1-6.8-13-6.8-9.2,2.3-13,6.8-6.1,11.3-6.5,20.3a233.1,233.1,0,0,0,.6,28.7c.9,10.1,1.9,19.6,3.2,28.5s2.5,16.9,3.8,23.8,2.1,11.8,2.5,14.5q1.2,7.2-2.7,11.4c-2.6,2.7-6.4,4-11.2,4H222.3c-4.9,0-8.6-1.3-11.2-4s-3.6-6.6-2.7-11.4q3.4-19.2,5.7-35.4t3.3-30.9c.7-9.8,1-19.3.9-28.6s-.5-18.7-1.1-28.5-1.7-20-3.3-30.9-3.4-22.6-5.5-35.4q-1.3-7.2,2.7-11.4c2.6-2.7,6.3-4.1,11.2-4.1h47.5c4.5,0,7.9.7,10.3,1.9s4.1,3.8,5.2,7.4a50.8,50.8,0,0,1,1.2,15.2c-.2,6.4-.9,14.7-2.2,25-.4,3,.2,5.2,1.8,6.8a7.2,7.2,0,0,0,5.2,2.4,7.3,7.3,0,0,0,4.7-1.8c1.5-1.1,2.4-3.1,2.8-5.8,2.8-18.7,8.3-31.9,16.7-39.7s19.9-11.6,34.4-11.4a51.8,51.8,0,0,1,18.6,3.2,33,33,0,0,1,13.4,9.3,35,35,0,0,1,7.2,15.4c1.4,6.2,1.3,13.6-.1,22.3-.5,3.3,0,5.8,1.4,7.5a6.1,6.1,0,0,0,4.9,2.5,6.3,6.3,0,0,0,4.5-1.7A9.7,9.7,0,0,0,402.8,445.3Z"/><path class="a00b0e36-a3c1-48d1-9b53-705ca81692af" d="M644.6,559.4q-6,26.4-21.2,40.2c-10,9.1-22.9,13.6-38.4,13.3a46.9,46.9,0,0,1-21.3-4.7,51.9,51.9,0,0,1-16.4-12.4,49.2,49.2,0,0,1-9.9-18.3,53,53,0,0,1-1.6-22.2c1.7-12.6,2.8-24.5,3.3-35.8a321.3,321.3,0,0,0,0-34c-.5-11.5-1.5-23.5-3.1-36s-3.7-26.4-6.5-41.7q-1.2-7.2,2.7-11.4c2.6-2.7,6.4-4.1,11.2-4.1h61.4c4.9,0,8.3,1.4,10.4,4.1s3.3,6.6,3.5,11.4a133.2,133.2,0,0,1-.9,23.9c-1.1,7.6-2.2,15.2-3.5,22.9s-2.5,15.4-3.6,23.3a168.7,168.7,0,0,0-1.8,25.4c0,9,2.4,15.7,7,20.1s9.6,6.7,15.1,6.7,10.8-2.2,15.4-6.7,7-11.1,7-20.1a170,170,0,0,0-1.8-25.5q-1.6-12-3.6-23.4t-3.3-22.8a168.8,168.8,0,0,1-1.1-23.8c.2-4.8,1.4-8.6,3.5-11.4s5.5-4.1,10.4-4.1h61.4c4.9,0,8.6,1.4,11.2,4.1s3.5,6.6,2.7,11.4q-3.1,19.2-5.4,35.4t-3.3,30.9c-.7,9.8-1.1,19.3-1.1,28.5s.4,18.8,1.1,28.6,1.9,20,3.3,30.9,3.3,22.6,5.4,35.4q1.2,7.2-2.7,11.4c-2.6,2.7-6.3,4-11.2,4H671.3c-5,0-9-.8-12.1-2.5a13.6,13.6,0,0,1-6.3-8.3c-1.2-3.9-1.5-9.1-.9-15.5a186.8,186.8,0,0,1,3.9-24.1c.6-2.9.3-5.1-.9-6.4a6,6,0,0,0-4.5-2.1,5.9,5.9,0,0,0-3.6,1.3A6.6,6.6,0,0,0,644.6,559.4Z"/><path class="a00b0e36-a3c1-48d1-9b53-705ca81692af" d="M402.9,689c4.2-18.8,10.9-32.4,20.1-40.6s21.8-12.3,37.7-12.1a45,45,0,0,1,20.2,4.4,44.3,44.3,0,0,1,15.4,12.1,49.5,49.5,0,0,1,9.1,18.2,57.3,57.3,0,0,1,1.2,22.8c-1.7,12.5-2.8,24.4-3.3,35.6s-.5,22.5,0,34,1.6,23.3,3.2,35.8,3.7,26.3,6.4,41.6c.8,4.8,0,8.6-2.7,11.3s-6.3,4.1-11.1,4.1H437.8c-4.8,0-8.5-1.3-11.1-4.1s-3.6-6.5-2.7-11.3c.4-2.9,1.2-7.8,2.5-14.8s2.5-14.8,3.8-23.7,2.3-18.3,3.1-28.3a210.1,210.1,0,0,0,.6-28.4c-.4-9-2.5-15.7-6.2-20.1s-8.1-6.6-12.9-6.6-8.5,2-12.3,6-6.1,10-6.9,18.2.2,14.7.5,22,.9,14.9,1.7,22.8,1.9,16.1,3.1,24.8,2.8,18.1,4.4,28.1c.9,4.8,0,8.6-2.6,11.3s-6.4,4.1-11.2,4.1H330.3c-4.8,0-8.5-1.3-11.1-4.1s-3.5-6.5-2.7-11.3c.4-2.9,1.3-7.8,2.5-14.8s2.5-14.8,3.8-23.7,2.3-18.3,3.1-28.3a210.7,210.7,0,0,0,.7-28.4c-.4-9-2.5-15.8-6.3-20.3s-8.1-6.7-12.9-6.7-9.2,2.2-13,6.7-6.1,11.3-6.5,20.3a214.4,214.4,0,0,0,.7,28.6c.8,10.1,1.8,19.5,3.1,28.4s2.5,16.9,3.8,23.8,2.1,11.7,2.5,14.4c.8,4.8-.1,8.6-2.7,11.3s-6.3,4.1-11.1,4.1H222.9c-4.8,0-8.6-1.3-11.2-4.1s-3.5-6.5-2.6-11.3c2.3-12.8,4.1-24.5,5.6-35.3s2.6-21.1,3.3-30.8,1.1-19.2,1-28.5-.5-18.7-1.1-28.4-1.8-20-3.3-30.8-3.5-22.6-5.5-35.3c-.9-4.9,0-8.6,2.6-11.4s6.4-4,11.2-4h47.4q6.6,0,10.2,1.8c2.4,1.3,4.2,3.8,5.2,7.4s1.5,8.7,1.3,15.1-1,14.7-2.2,25c-.4,2.9.1,5.2,1.7,6.7a7.2,7.2,0,0,0,5.2,2.4,7.8,7.8,0,0,0,4.7-1.7c1.5-1.2,2.4-3.1,2.8-5.8,2.8-18.7,8.3-31.9,16.7-39.6s19.8-11.5,34.2-11.3a51.5,51.5,0,0,1,18.6,3.1,32,32,0,0,1,13.3,9.3,35.1,35.1,0,0,1,7.3,15.4c1.3,6.2,1.3,13.5-.2,22.1-.4,3.4.1,5.9,1.4,7.6a6.3,6.3,0,0,0,9.4.7A9.4,9.4,0,0,0,402.9,689Z"/><path class="a00b0e36-a3c1-48d1-9b53-705ca81692af" d="M614.4,756.3a7.7,7.7,0,0,0-5.5,1.9,6.7,6.7,0,0,0-2.4,4.4,9.1,9.1,0,0,0,1.1,5.2,10.5,10.5,0,0,0,4.6,4.2c6.5,2.9,14.7,4.4,24.5,4.4a119.2,119.2,0,0,0,33.8-5.3,94.2,94.2,0,0,0,31.6-16.4,11.2,11.2,0,0,1,7.8-3.1,6.4,6.4,0,0,1,4.4,1.7c1.3,1.2,1.9,3.1,1.9,5.8v57.2a26.9,26.9,0,0,1-8.9,20.7,68.8,68.8,0,0,1-21.6,13.2,110.8,110.8,0,0,1-26.1,7.1,151.2,151.2,0,0,1-22.6,2.1c-16.9,0-32.2-2.8-45.9-8.2a100.4,100.4,0,0,1-35-23.3,103.6,103.6,0,0,1-22.5-36.4c-5.2-14.3-7.8-30.2-7.8-47.8s2.4-32.2,7.4-45.9a98.3,98.3,0,0,1,21-34.8,90.6,90.6,0,0,1,33.3-22.2c13.1-5.1,27.7-7.7,43.9-7.7,25.3,0,45,5.4,59,16s21.1,25.8,21.1,45.3a49.5,49.5,0,0,1-6.8,25.6,60.1,60.1,0,0,1-19.1,19.5c-8.3,5.3-18.5,9.5-30.5,12.4A174.4,174.4,0,0,1,614.4,756.3Zm-15.1-24.5c4.8,0,9.3-1.9,13.4-5.7a48.9,48.9,0,0,0,10.5-14,75,75,0,0,0,6.6-17.9,61.6,61.6,0,0,0,1.7-17.6c-.3-5.3-1.7-9.5-4.1-12.7s-6.1-4.2-11.1-3.1-8,3.1-11.5,6.9a54.3,54.3,0,0,0-8.8,13.5,80.7,80.7,0,0,0-5.5,16.8,70.7,70.7,0,0,0-1.6,16.5c.3,5,1.2,9.2,2.9,12.4A7.9,7.9,0,0,0,599.3,731.8Z"/><path class="a00b0e36-a3c1-48d1-9b53-705ca81692af" d="M821.8,689.7q6-26.4,21-40.1c10.1-9.1,22.9-13.5,38.4-13.3a47.5,47.5,0,0,1,21.3,4.7,48.7,48.7,0,0,1,16.4,12.5,51.9,51.9,0,0,1,11.3,40.3c-1.7,12.5-2.8,24.4-3.3,35.6s-.5,22.5,0,34,1.6,23.3,3.1,35.8,3.7,26.3,6.5,41.6c.8,4.8-.1,8.6-2.7,11.3s-6.3,4.1-11.2,4.1H861.4c-4.8,0-8.3-1.3-10.4-4.1s-3.2-6.5-3.5-11.3a168.1,168.1,0,0,1,1.1-23.9c1-7.5,2.1-15.1,3.3-22.7s2.5-15.4,3.7-23.3a183,183,0,0,0,1.7-25.3c.2-9-2.1-15.8-6.8-20.3s-9.8-6.7-15.2-6.7-10.5,2.2-15.2,6.7-7.1,11.3-7.1,20.3a187.1,187.1,0,0,0,1.7,25.5c1.2,7.9,2.4,15.7,3.6,23.2s2.4,15.2,3.5,22.8a132.1,132.1,0,0,1,.9,23.7c-.2,4.8-1.3,8.6-3.4,11.3s-5.6,4.1-10.4,4.1H747.6c-4.8,0-8.5-1.3-11.1-4.1s-3.5-6.5-2.7-11.3c2.3-12.8,4.2-24.5,5.7-35.3s2.5-21.1,3.3-30.8,1-19.2.9-28.5-.5-18.7-1.1-28.4-1.7-20-3.3-30.8-3.4-22.6-5.5-35.3c-.8-4.9,0-8.6,2.7-11.4s6.3-4,11.1-4h47.5c5,0,9,.8,12.1,2.5a13.6,13.6,0,0,1,6.3,8.3c1.1,3.9,1.4,9,.9,15.4a183,183,0,0,1-3.9,24c-.7,3-.3,5.1.9,6.5a5.9,5.9,0,0,0,8,.8A6.5,6.5,0,0,0,821.8,689.7Z"/><path class="a00b0e36-a3c1-48d1-9b53-705ca81692af" d="M1028.8,707.9c0-.2-.1-.3-.1-.5-5.9-16-46.1,1.3-54.5,5.2a21.3,21.3,0,0,1-9.1,2.2c-7.4,0-11-4.6-11-13.8V651.7c0-10.3,5.1-15.4,15.4-15.4H1131c10.2,0,15.4,5.1,15.4,15.4V701q0,12.3-13.2,13.8a34.4,34.4,0,0,1-10.9-.5c-4.1-.7-8.3-1.5-12.7-2.5l-13.4-2.6a63,63,0,0,0-12.4-1.3,38.8,38.8,0,0,0-14.1,2.5,36.5,36.5,0,0,0-11.5,7.1,34.4,34.4,0,0,0-7.7,10.7,31.1,31.1,0,0,0-2.8,13.3,25.4,25.4,0,0,0,3.5,13.1,30,30,0,0,0,9.4,9.7,47.1,47.1,0,0,0,14,6.1,60.3,60.3,0,0,0,16.5,2.2,67,67,0,0,0,19.8-3,51.6,51.6,0,0,0,17.9-9.5c3.1-2.5,5.9-3.8,8.5-3.8,4.8,0,7.2,3.1,7.2,9.4v53.4c0,8-2.5,14.4-7.4,19.4s-12,8.7-21.2,11.4a230.2,230.2,0,0,1-30.3,6.6,186.2,186.2,0,0,1-28.2,2.2c-23.1,0-40.7-4.6-60.3-16.4-5.9-3.6-12-7.6-14.9-13.9-2-4.4-2.2-9.5-2.4-14.4-.3-11.1-.5-22.6,3.8-32.7,9.3-22,37.3-32.7,43.6-55.6a63.6,63.6,0,0,0,1.8-13A12.9,12.9,0,0,0,1028.8,707.9Z"/><path class="a00b0e36-a3c1-48d1-9b53-705ca81692af" d="M859.6,504.2c10.4-1.7,20.4-5.5,31-5.9s21.6,1.9,31.7,5.5,13.7,25.4,7.9,34.4-17.8,9.7-27.8,7.6-20-6.3-30.1-4.8c-16.5,2.4-27.2,13.5-26.9,29.8a53.3,53.3,0,0,0,2.3,14.2,66.3,66.3,0,0,0,5.4,12.6c2.4,4.2,2.8,7.8,1.2,10.9s-4.9,4.7-9.7,4.8l-66.5,1.2c-4.8.1-8.6-1.2-11.2-3.9s-3.7-6.5-2.9-11.3c2-12.9,3.7-24.7,5-35.6s2.2-21.1,2.7-30.9.7-19.3.4-28.5-.8-18.8-1.6-28.5-2.1-20-3.9-30.8-3.8-22.6-6.1-35.4c-1-4.6-.1-8.3,2.4-11.1s6.3-4.3,11.1-4.6l38.5-1.8c11.3-.5,22.5-.9,33.7-1.1s22.4-.2,33.9-.1l38.3.3c10.3.3,15.5,5.3,15.7,15.2l.9,48.5a15.4,15.4,0,0,1-3.3,10.5,10.5,10.5,0,0,1-8.4,4.2,11.9,11.9,0,0,1-5.7-1.4,110.6,110.6,0,0,0-22.6-8.1,83.7,83.7,0,0,0-22.1-2.8,47.4,47.4,0,0,0-14.1,2.2c-6.7,2.2-11.5,5.9-14.3,11.1-7.2,13.2-9.7,36.5,11.2,34.1Z"/><path class="a00b0e36-a3c1-48d1-9b53-705ca81692af" d="M1063.1,499.6c10.3-1.8,20.3-5.7,30.9-6.2s21.6,1.6,31.8,5.1,14,25.3,8.2,34.4-17.7,9.8-27.7,7.8-20-6.1-30.1-4.5c-16.5,2.7-27.1,13.8-26.6,30.2a46.5,46.5,0,0,0,2.5,14.1,60.6,60.6,0,0,0,5.5,12.6c2.5,4.2,2.9,7.8,1.3,10.9s-4.8,4.7-9.6,4.8l-66.5,2c-4.8.1-8.6-1.2-11.3-3.8s-3.7-6.4-3-11.3c1.9-12.8,3.5-24.7,4.6-35.6s2-21.2,2.4-30.9.5-19.3.1-28.6-1-18.7-1.9-28.5-2.3-20-4.2-30.7-4.1-22.6-6.6-35.3q-1.5-6.9,2.4-11.1c2.5-2.8,6.2-4.4,11-4.7l38.4-2.3c11.4-.6,22.6-1.1,33.7-1.4s22.4-.5,33.9-.6h38.3q15.5.2,15.9,15l1.4,48.5a15.8,15.8,0,0,1-3.1,10.5,11,11,0,0,1-8.4,4.4,13.5,13.5,0,0,1-5.7-1.5,126.7,126.7,0,0,0-22.7-7.8,83.3,83.3,0,0,0-22.1-2.5,46.2,46.2,0,0,0-14.1,2.3c-6.7,2.3-11.4,6.1-14.2,11.3-7.1,13.3-9.3,36.6,11.6,34Z"/><g class="edb46229-58b3-48ac-87cf-b5687340c05a"><path class="bc7e6d7e-635c-4f51-a6f7-e1bc0d59bf13" d="M460.3,518.6c-.4-5.5-.6-11-.8-16.5A343.3,343.3,0,0,1,561,248.5l3.6-3.9,11.1,10.1-3.9,4.3c-65.2,64.8-99.8,150.9-97.3,242.7.1,5.3.4,10.6.8,15.8Z"/><path class="bc7e6d7e-635c-4f51-a6f7-e1bc0d59bf13" d="M803.8,837.2a344.8,344.8,0,0,1-215.4-75.6c-62.7-50.4-106.1-121.2-122-199.6l14.7-2.9c31.9,156.7,171.4,267.3,331.6,263l.4,15Z"/><path class="bc7e6d7e-635c-4f51-a6f7-e1bc0d59bf13" d="M928.9,814.9l-6.5-13.5,21.4-10.3a329.5,329.5,0,0,0-71.7-620.6c-16-3.4-32.8-4.8-49.1-6.2l-10.8-.9,1.4-14.9,10.7.9c16.7,1.4,34,2.9,50.9,6.5a342.3,342.3,0,0,1,100.3,38.3,347,347,0,0,1,82.5,66.3A344.5,344.5,0,0,1,950.2,804.6Z"/><path class="bc7e6d7e-635c-4f51-a6f7-e1bc0d59bf13" d="M433,524.7c-.7-7.2-1.1-14.6-1.3-21.8A343.6,343.6,0,0,1,549.2,234.4c.7-.7,7.1-6.5,14.3-12.5l9.6,11.5c-7.1,6-13.8,12.1-13.8,12.1h-.2A328.9,328.9,0,0,0,446.7,502.5c.2,6.9.6,14,1.2,20.9Z"/><path class="bc7e6d7e-635c-4f51-a6f7-e1bc0d59bf13" d="M775.8,838A344.2,344.2,0,0,1,438.9,564.2l14.6-3C485.4,714.2,620.1,823,775.8,823h9.1l8-.4.7,15c-2.7.2-5.5.3-8.3.3Z"/><path class="bc7e6d7e-635c-4f51-a6f7-e1bc0d59bf13" d="M639.8,318.4a79.3,79.3,0,1,1,1.1,0Zm0-144.6h-.9a64.8,64.8,0,0,0,.9,129.6h.9a64.8,64.8,0,0,0-.9-129.6Z"/><path class="bc7e6d7e-635c-4f51-a6f7-e1bc0d59bf13" d="M758.1,280.4a80.1,80.1,0,0,1-51.8-19l9.8-11.5a64.1,64.1,0,0,0,42,15.5h1A64.9,64.9,0,0,0,823,199.7a64.9,64.9,0,0,0-64.8-63.9h-1A64.6,64.6,0,0,0,695,186l-14.7-3.3A79.7,79.7,0,0,1,757,120.8h1.2a79.8,79.8,0,0,1,1.1,159.6Z"/><path class="bc7e6d7e-635c-4f51-a6f7-e1bc0d59bf13" d="M709.2,214.7l-9.7-11.4c16.2-13.7,33.8-27.3,56-30.8,18-2.9,37.7-2.6,60.3.7,5.1.7,9.2,1.5,13.1,2.3l-3.2,14.7c-3.5-.8-7.3-1.5-12-2.2-21.2-3.1-39.4-3.3-55.8-.7C739.5,190.2,724.3,201.9,709.2,214.7Z"/><path class="bc7e6d7e-635c-4f51-a6f7-e1bc0d59bf13" d="M589,288l-14.9-1.3c2.7-30,29-52.9,50.7-63.3s47.2-15.1,79.3-15.1h2.4v15c-30.9-.2-55.5,4.2-75.1,13.6S591,265.8,589,288Z"/><path class="bc7e6d7e-635c-4f51-a6f7-e1bc0d59bf13" d="M657.9,238.2l-4.9-.9,3.5-3.6,1.8-1.9a15.9,15.9,0,1,0,1.5,6.7Z"/><path class="bc7e6d7e-635c-4f51-a6f7-e1bc0d59bf13" d="M644,254.9a16.3,16.3,0,0,1-11.7-27.7,16,16,0,0,1,11.5-4.9h.2a16.2,16.2,0,0,1,14.7,9.3l.2.3-4.9,5,6.3,1.2v.4a16.4,16.4,0,0,1-16.1,16.4Zm0-31.6h-.2a15.3,15.3,0,0,0-10.5,26.3,15.8,15.8,0,0,0,10.9,4.3,15.4,15.4,0,0,0,15.1-15l-7.3-1.3,5.7-5.9A15.4,15.4,0,0,0,644,223.3Z"/><path class="bc7e6d7e-635c-4f51-a6f7-e1bc0d59bf13" d="M778.9,194.5l-4.9-1.2,3.7-3.4,1.9-1.7a15.9,15.9,0,1,0,.8,6.6Z"/><path class="bc7e6d7e-635c-4f51-a6f7-e1bc0d59bf13" d="M764.7,209.8a16.3,16.3,0,0,1-.2-32.6h.2A16.2,16.2,0,0,1,780,188v.4l-5,4.6,5.9,1.5v.4a16.2,16.2,0,0,1-16,14.9Zm0-31.6h-.2a15.3,15.3,0,1,0,15.4,17l-6.9-1.6,6-5.5A15.3,15.3,0,0,0,764.7,178.2Z"/><path class="bc7e6d7e-635c-4f51-a6f7-e1bc0d59bf13" d="M954.9,242.7c8.2-1.6,15.5-2.7,22.7-4.4,10.1-2.5,20.2-5.6,27.5-13.9s9.8-17.6,11.9-27.5a153.1,153.1,0,0,1,4.6-18.3c.6,2.9,1.1,5.9,1.8,8.8,2.2,8.5,3.8,17.2,6.7,25.4,4.1,11.5,12.7,19.1,24.4,22.4s21.1,5.2,32.2,7.8l-7.7,1.9c-8.5,2-17.2,3.5-25.6,6.2-12.7,4-21,12.9-24.6,25.6-2.7,9.3-4.5,18.8-6.6,28.3a4,4,0,0,1-1.5,2.4c-1.2-5.8-1.9-11.6-3.5-17.2-2.2-7.7-4.5-15.5-7.8-22.7A29.3,29.3,0,0,0,991,252c-10.3-3.1-21-5.4-31.5-8Z"/><path class="bc7e6d7e-635c-4f51-a6f7-e1bc0d59bf13" d="M1020.4,308.2l-.2-.7c-.4-1.8-.7-3.6-1-5.4-.7-3.9-1.4-7.9-2.5-11.8-2.2-7.5-4.4-15.3-7.8-22.6a28.6,28.6,0,0,0-18-15.2c-7.2-2.2-14.7-4-21.9-5.7l-9.6-2.3-2.7-.7-4-1.1,2.1-.5,7.6-1.4c5.2-.9,10.2-1.8,15.1-3,9.8-2.4,20-5.5,27.2-13.7s9.8-17.8,11.8-27.3c.3-1.1.5-2.1.7-3.1a127.2,127.2,0,0,1,3.9-15.3l.6-1.7.4,1.8c.2.9.3,1.8.5,2.7s.8,4.1,1.3,6l1.8,7.3a142.3,142.3,0,0,0,4.9,18.1c3.9,11.1,12.2,18.8,24,22.2,7.2,2,14.4,3.7,22,5.4l10.2,2.4,2,.4-9.7,2.4-8,1.7c-5.8,1.3-11.8,2.6-17.5,4.4-12.3,3.9-20.7,12.7-24.4,25.3-1.8,6.4-3.2,13-4.6,19.4-.6,3-1.3,5.9-1.9,8.9a4.5,4.5,0,0,1-1.7,2.7Zm-63.3-65.4,2.5.7,9.7,2.3c7.2,1.8,14.6,3.6,21.9,5.8a29.6,29.6,0,0,1,18.6,15.7c3.4,7.3,5.7,15.2,7.9,22.7,1.1,3.9,1.8,8,2.5,11.9.3,1.5.5,3,.8,4.5a3.3,3.3,0,0,0,.7-1.6c.7-2.9,1.3-5.8,1.9-8.8,1.4-6.4,2.8-13,4.7-19.4,3.7-13,12.4-22,25-26a156.1,156.1,0,0,1,17.6-4.4l8-1.8,5.6-1.4-8.1-1.8c-7.6-1.8-14.8-3.4-22-5.5-12.2-3.5-20.7-11.3-24.8-22.7a170.5,170.5,0,0,1-4.9-18.3c-.6-2.4-1.1-4.8-1.7-7.2s-1-4.1-1.4-6.1c0-.3-.1-.6-.1-.9a137.6,137.6,0,0,0-3.3,13.4c-.2,1-.5,2-.7,3.1-2.1,9.6-5,19.7-12.1,27.7s-17.7,11.6-27.7,14.1c-4.9,1.2-9.9,2.1-15.1,3Z"/><path class="bc7e6d7e-635c-4f51-a6f7-e1bc0d59bf13" d="M686.4,132.2a14.7,14.7,0,0,1-5-.9,13.7,13.7,0,0,1-7.6-17.6c.6-1.3,13.6-33.7,44.9-44.2,20.5-6.9,43.1-3,67.2,11.6a13.5,13.5,0,0,1,4.6,18.5,13.6,13.6,0,0,1-18.6,4.6C755,93.9,740,90.8,727.5,95c-19.3,6.4-28.5,28.5-28.6,28.7A13.4,13.4,0,0,1,686.4,132.2Z"/><path class="bc7e6d7e-635c-4f51-a6f7-e1bc0d59bf13" d="M558.2,186.5l-1.9-.2a13.5,13.5,0,0,1-11.5-15.2c.2-1.3,4.6-31.8,29.3-47.4,16.1-10.3,36.3-11.7,60-4.2a13.5,13.5,0,0,1-8.1,25.7c-15.7-4.9-28.3-4.5-37.4,1.3-14,8.8-17,28.1-17.1,28.3A13.5,13.5,0,0,1,558.2,186.5Z"/><path class="bc7e6d7e-635c-4f51-a6f7-e1bc0d59bf13" d="M517.7,564.9a3.5,3.5,0,0,1-2.4-1l-.5-.6-.3-.6c-.1-.2-.1-.4-.2-.6s-.1-.5-.1-.7.1-.5.1-.7.1-.4.2-.6a1.6,1.6,0,0,1,.3-.6l.5-.6a3.3,3.3,0,0,1,3.1-.9l.7.2.6.3.5.4.5.6a1.6,1.6,0,0,1,.3.6c.1.2.1.4.2.6v1.4c-.1.2-.1.4-.2.6l-.3.6-.5.6-.5.4-.6.3-.7.2Z"/><path class="bc7e6d7e-635c-4f51-a6f7-e1bc0d59bf13" d="M505.8,620a3.4,3.4,0,0,1-2.7-4.1h0a3.5,3.5,0,0,1,4.1-2.8h0a3.5,3.5,0,0,1,2.7,4.2h0a3.5,3.5,0,0,1-3.4,2.8h-.7Zm2.8-13.8a3.4,3.4,0,0,1-2.7-4.1h0a3.6,3.6,0,0,1,4.1-2.8h0a3.5,3.5,0,0,1,2.7,4.2h0a3.4,3.4,0,0,1-3.4,2.8h-.7Zm2.8-13.8a3.4,3.4,0,0,1-2.7-4.1h0a3.6,3.6,0,0,1,4.1-2.8h0a3.7,3.7,0,0,1,2.8,4.2h0a3.6,3.6,0,0,1-3.5,2.8h-.7Zm2.8-13.8a3.4,3.4,0,0,1-2.7-4.1h0a3.4,3.4,0,0,1,4.1-2.7h0a3.5,3.5,0,0,1,2.8,4.1h0a3.6,3.6,0,0,1-3.5,2.8h-.7Z"/><path class="bc7e6d7e-635c-4f51-a6f7-e1bc0d59bf13" d="M503.7,633.8a3.5,3.5,0,0,1-2.5-1,3.6,3.6,0,0,1-1-2.5,3.5,3.5,0,0,1,1-2.4l.6-.5.6-.3.6-.2a3.7,3.7,0,0,1,3.2,1,3.5,3.5,0,0,1,1,2.4,1.5,1.5,0,0,1-.1.7,1.4,1.4,0,0,1-.2.7l-.3.6-.4.5A3.5,3.5,0,0,1,503.7,633.8Z"/><path class="bc7e6d7e-635c-4f51-a6f7-e1bc0d59bf13" d="M507.1,561.6h-.7l-.7-.2c-.2,0-.4-.2-.6-.3l-.5-.4-.4-.5a.9.9,0,0,1-.3-.7,1.4,1.4,0,0,1-.2-.6,1.7,1.7,0,0,1-.1-.7,3.9,3.9,0,0,1,1-2.5l.5-.4.6-.3.7-.2a3.8,3.8,0,0,1,3.2.9,3.9,3.9,0,0,1,1,2.5,1.7,1.7,0,0,1-.1.7,1.4,1.4,0,0,1-.2.6l-.3.7-.4.5A3.9,3.9,0,0,1,507.1,561.6Z"/><path class="bc7e6d7e-635c-4f51-a6f7-e1bc0d59bf13" d="M496.1,612.2a3.6,3.6,0,0,1-2.8-4.1h0a3.6,3.6,0,0,1,4.2-2.8h0a3.5,3.5,0,0,1,2.7,4.2h0a3.5,3.5,0,0,1-3.4,2.8h-.7Zm2.5-12.7a3.5,3.5,0,0,1-2.7-4.1h0a3.4,3.4,0,0,1,4.1-2.7h0a3.5,3.5,0,0,1,2.8,4.1h0a3.5,3.5,0,0,1-3.5,2.8h-.7Zm2.6-12.6a3.5,3.5,0,0,1-2.7-4.2h0a3.4,3.4,0,0,1,4.1-2.7h0a3.6,3.6,0,0,1,2.8,4.1h0a3.5,3.5,0,0,1-3.5,2.8h-.7Zm2.6-12.7a3.4,3.4,0,0,1-2.7-4.1h0a3.6,3.6,0,0,1,4.1-2.8h0a3.5,3.5,0,0,1,2.7,4.2h0a3.5,3.5,0,0,1-3.4,2.8h-.7Z"/><path class="bc7e6d7e-635c-4f51-a6f7-e1bc0d59bf13" d="M494.2,624.9h-.7l-.7-.2-.6-.4-.5-.4-.4-.5c-.1-.2-.3-.4-.3-.6a1.9,1.9,0,0,1-.2-.7,1.5,1.5,0,0,1-.1-.7,3.5,3.5,0,0,1,1-2.4l.5-.5.6-.3.7-.2a3.3,3.3,0,0,1,1.4,0l.6.2.6.3.6.5a3.5,3.5,0,0,1,1,2.4,1.5,1.5,0,0,1-.1.7,1.9,1.9,0,0,1-.2.7l-.3.6-.4.5-.6.4-.6.4-.6.2Z"/><path class="bc7e6d7e-635c-4f51-a6f7-e1bc0d59bf13" d="M496.3,562.8a3.5,3.5,0,0,1-2.4-1l-.5-.6-.3-.6c-.1-.2-.1-.4-.2-.6s-.1-.5-.1-.7a3.6,3.6,0,0,1,1.1-2.5l.5-.4c.2-.1.4-.3.6-.3l.7-.2a2.9,2.9,0,0,1,1.3,0l.7.2c.2,0,.4.2.6.3l.5.4.5.6.3.6c.1.2.1.4.2.6V560c-.1.2-.1.4-.2.6l-.3.6-.5.6-.5.4-.6.3-.7.2Z"/><path class="bc7e6d7e-635c-4f51-a6f7-e1bc0d59bf13" d="M488,600.1a3.4,3.4,0,0,1-2.7-4.1h0a3.5,3.5,0,0,1,4.1-2.8h0a3.7,3.7,0,0,1,2.8,4.2h0a3.6,3.6,0,0,1-3.5,2.8H488Zm2.6-12.5a3.6,3.6,0,0,1-2.8-4.1h0a3.5,3.5,0,0,1,4.2-2.7h0a3.4,3.4,0,0,1,2.7,4.1h0a3.4,3.4,0,0,1-3.4,2.8h-.7Zm2.5-12.4a3.5,3.5,0,0,1-2.7-4.1h0a3.5,3.5,0,0,1,4.1-2.8h0a3.5,3.5,0,0,1,2.7,4.1h0a3.5,3.5,0,0,1-3.4,2.9h-.7Z"/><path class="bc7e6d7e-635c-4f51-a6f7-e1bc0d59bf13" d="M486.2,612.6h-.7l-.6-.2a.7.7,0,0,1-.6-.3l-.6-.4-.4-.5-.3-.6a2.5,2.5,0,0,1-.2-.7,1.7,1.7,0,0,1-.1-.7,2,2,0,0,1,.1-.7,1.4,1.4,0,0,1,.2-.6l.3-.6.4-.6.6-.4.6-.3.6-.2a3.3,3.3,0,0,1,1.4,0l.6.2.6.3.6.4.4.6.3.6a1.4,1.4,0,0,1,.2.6,2,2,0,0,1,.1.7,1.7,1.7,0,0,1-.1.7,2.5,2.5,0,0,1-.2.7l-.3.6-.4.5-.6.4a.6.6,0,0,1-.6.3l-.6.2Z"/><path class="bc7e6d7e-635c-4f51-a6f7-e1bc0d59bf13" d="M487.6,567.9h-.7l-.7-.2-.6-.3-.5-.5a1,1,0,0,1-.4-.5,2.1,2.1,0,0,1-.4-.6,2.5,2.5,0,0,0-.2-.7v-1.3a2.5,2.5,0,0,0,.2-.7l.4-.6a1,1,0,0,1,.4-.5l.5-.5.6-.3.7-.2a3.3,3.3,0,0,1,1.4,0l.6.2.6.3c.2.2.4.3.5.5a1.2,1.2,0,0,1,.5.5l.3.6a1.4,1.4,0,0,1,.2.7c0,.2.1.4.1.7s-.1.4-.1.6a1.4,1.4,0,0,1-.2.7l-.3.6a1.2,1.2,0,0,1-.5.5c-.1.2-.3.3-.5.5l-.6.3-.6.2Z"/><path class="bc7e6d7e-635c-4f51-a6f7-e1bc0d59bf13" d="M483.8,580h-.7l-.6-.2-.6-.4a1,1,0,0,1-.5-.4c-.2-.2-.4-.3-.5-.5l-.3-.6a1.9,1.9,0,0,1-.2-.7,1.5,1.5,0,0,1-.1-.7,1.3,1.3,0,0,1,.1-.6,1.4,1.4,0,0,1,.2-.7l.3-.6a1.2,1.2,0,0,1,.5-.5c.1-.2.3-.3.5-.5l.6-.3.6-.2a3.3,3.3,0,0,1,1.4,0l.7.2.6.3.5.5a1,1,0,0,1,.4.5,2.1,2.1,0,0,1,.4.6,2.5,2.5,0,0,0,.2.7v.6a3.2,3.2,0,0,1-1,2.5l-.5.4-.6.4-.7.2Z"/><path class="bc7e6d7e-635c-4f51-a6f7-e1bc0d59bf13" d="M534.1,293.3a2.2,2.2,0,0,1-1.7-.7l-.3-.4-.3-.4a2332275398107.9,2332275398107.9,0,0,0-.2-1,2.3,2.3,0,0,1,.8-1.7l.4-.3.4-.3h1.9l.4.3.4.3a2.2,2.2,0,0,1,.7,1.7,2.3,2.3,0,0,1-.7,1.8l-.4.3-.4.3h-1Z"/><path class="bc7e6d7e-635c-4f51-a6f7-e1bc0d59bf13" d="M538.2,279.5a2.7,2.7,0,0,1-1.5-3.2h0a2.5,2.5,0,0,1,3.2-1.5h0a2.6,2.6,0,0,1,1.6,3.2h0a2.6,2.6,0,0,1-2.4,1.6h-.9Zm5-13.8a2.4,2.4,0,0,1-1.5-3.2h0a2.6,2.6,0,0,1,3.2-1.5h0a2.5,2.5,0,0,1,1.5,3.2h0a2.4,2.4,0,0,1-2.3,1.7h0Z"/><path class="bc7e6d7e-635c-4f51-a6f7-e1bc0d59bf13" d="M549,252.2h-.9l-.5-.3-.3-.3-.4-.4c-.1-.1-.1-.2-.2-.4a.7.7,0,0,1-.1-.5.6.6,0,0,1-.1-.4.7.7,0,0,1,.1-.5.9.9,0,0,1,.1-.5c.1-.2.1-.3.2-.4l.4-.4.3-.3.5-.3H550l.4.3.4.3.3.4a.5.5,0,0,1,.2.4l.2.5v.9c-.1.2-.1.4-.2.5a.5.5,0,0,1-.2.4l-.3.4-.4.3-.4.3h-1Z"/><path class="bc7e6d7e-635c-4f51-a6f7-e1bc0d59bf13" d="M544.5,282.3h-.9l-.5-.2-.3-.3c-.2-.2-.3-.3-.3-.4l-.3-.5v-.4a1.3,1.3,0,0,1,0-1c0-.2.1-.3.1-.5l.3-.4a.5.5,0,0,1,.3-.4,2.5,2.5,0,0,1,2.2-.7l.5.2.4.2.4.3.3.4a.8.8,0,0,1,.2.4c.1.2.2.3.2.5v1a.8.8,0,0,1-.2.4c0,.2-.1.3-.2.5l-.3.4-.4.3-.4.2h-1Z"/><path class="bc7e6d7e-635c-4f51-a6f7-e1bc0d59bf13" d="M548.6,268.4a2.6,2.6,0,0,1-1.5-3.2h0a2.5,2.5,0,0,1,3.2-1.5h0a2.5,2.5,0,0,1,1.5,3.2h0a2.5,2.5,0,0,1-2.3,1.7h0Zm5-13.7a2.5,2.5,0,0,1-1.5-3.2h0a2.5,2.5,0,0,1,3.2-1.5h0a2.4,2.4,0,0,1,1.5,3.2h0a2.5,2.5,0,0,1-2.4,1.6h-.8Z"/><path class="bc7e6d7e-635c-4f51-a6f7-e1bc0d59bf13" d="M559.4,241.1h-.9l-.5-.2-.4-.3-.3-.4c-.1-.2-.1-.3-.2-.4a1.1,1.1,0,0,1-.1-.5,3.8,3.8,0,0,1,.1-1.5c.1-.1.1-.3.2-.4l.3-.4.4-.3.5-.2.4-.2h1l.5.2.4.2.4.3.3.4.2.4.2.5v1c-.1.1-.1.3-.2.5l-.2.4-.3.4A2.9,2.9,0,0,1,559.4,241.1Z"/><path class="bc7e6d7e-635c-4f51-a6f7-e1bc0d59bf13" d="M523.9,301.3H523l-.5-.2-.3-.4a2.3,2.3,0,0,1-.8-1.7.9.9,0,0,1,.1-.5c0-.2.1-.3.1-.5l.3-.4a.5.5,0,0,1,.3-.4l.3-.3.5-.2.4-.2a2.7,2.7,0,0,1,2.3.7l.3.4a.8.8,0,0,1,.2.4l.2.5v1c-.1.1-.1.3-.2.4s-.1.3-.2.5l-.3.3a.8.8,0,0,1-.4.4l-.4.2h-1Z"/><path class="bc7e6d7e-635c-4f51-a6f7-e1bc0d59bf13" d="M528,287.4a2.6,2.6,0,0,1-1.5-3.2h0a2.5,2.5,0,0,1,3.2-1.5h0a2.5,2.5,0,0,1,1.5,3.2h0a2.5,2.5,0,0,1-2.3,1.7h0Zm5-13.7a2.5,2.5,0,0,1-1.5-3.2h0a2.5,2.5,0,0,1,3.2-1.5h0a2.4,2.4,0,0,1,1.5,3.2h0a2.5,2.5,0,0,1-2.3,1.6H533Z"/><path class="bc7e6d7e-635c-4f51-a6f7-e1bc0d59bf13" d="M538.8,260.1h-.9l-.5-.2-.4-.3-.3-.4-.2-.5a.6.6,0,0,1-.1-.4,3.8,3.8,0,0,1,.1-1.5c.1-.1.1-.3.2-.4l.3-.4.4-.3.5-.2.4-.2h1l.5.2.4.2.4.3.3.4a.8.8,0,0,1,.2.4l.2.5v1c-.1.1-.1.3-.2.4s-.1.3-.2.5l-.3.4-.4.3-.4.2h-1Z"/><path class="bc7e6d7e-635c-4f51-a6f7-e1bc0d59bf13" d="M508.7,320.8h-.5l-.4-.2-.5-.2-.3-.3c-.2-.1-.3-.3-.4-.4a.8.8,0,0,0-.2-.4c0-.2-.1-.3-.1-.5a.9.9,0,0,1-.1-.5,2.3,2.3,0,0,1,.8-1.7,2.4,2.4,0,0,1,3.5,0,2.2,2.2,0,0,1,.7,1.7v.5l-.2.5-.2.4-.3.4A2.4,2.4,0,0,1,508.7,320.8Z"/><path class="bc7e6d7e-635c-4f51-a6f7-e1bc0d59bf13" d="M512.8,306.9a2.5,2.5,0,0,1-1.5-3.2h0a2.6,2.6,0,0,1,3.2-1.5h0a2.5,2.5,0,0,1,1.5,3.2h0a2.3,2.3,0,0,1-2.3,1.7h0Zm5-13.7a2.5,2.5,0,0,1-1.5-3.2h0a2.5,2.5,0,0,1,3.2-1.5h0a2.5,2.5,0,0,1,1.5,3.2h0a2.6,2.6,0,0,1-2.4,1.7h0Z"/><path class="bc7e6d7e-635c-4f51-a6f7-e1bc0d59bf13" d="M523.6,279.6a2.6,2.6,0,0,1-1.8-.7,2.9,2.9,0,0,1-.7-1.8,1.1,1.1,0,0,1,.1-.5.6.6,0,0,1,.1-.4l.2-.5.3-.3.4-.3.4-.3h.5a2.5,2.5,0,0,1,2.3.7l.3.3c.1.2.2.3.2.5s.1.3.2.4v1l-.2.5-.2.4-.3.4-.4.3-.4.2-.5.2Z"/><path class="bc7e6d7e-635c-4f51-a6f7-e1bc0d59bf13" d="M443.8,473h-.9l-.5-.2-.3-.3-.4-.4c0-.2-.1-.3-.2-.5s-.1-.3-.1-.4a1.3,1.3,0,0,1,0-1c0-.2.1-.3.1-.5a.8.8,0,0,0,.2-.4c.1-.1.2-.3.4-.4l.3-.3.5-.2.4-.2a2.8,2.8,0,0,1,2.3.7,2.4,2.4,0,0,1,.7,1.8v.5c-.1.1-.1.3-.2.4s-.1.3-.2.5l-.3.4A2.9,2.9,0,0,1,443.8,473Z"/><path class="bc7e6d7e-635c-4f51-a6f7-e1bc0d59bf13" d="M447.4,460.9a2.4,2.4,0,0,1-1.4-3.2h0a2.5,2.5,0,0,1,3.2-1.5h0a2.7,2.7,0,0,1,1.5,3.3h0a2.6,2.6,0,0,1-2.4,1.6h0Zm4.5-11.9a2.4,2.4,0,0,1-1.4-3.2h0a2.4,2.4,0,0,1,3.2-1.5h0a2.4,2.4,0,0,1,1.4,3.2h0a2.5,2.5,0,0,1-2.3,1.7h0Zm4.5-11.9a2.6,2.6,0,0,1-1.5-3.2h0a2.6,2.6,0,0,1,3.3-1.5h0a2.4,2.4,0,0,1,1.4,3.2h0a2.4,2.4,0,0,1-2.3,1.6h-.9Zm4.5-11.9a2.6,2.6,0,0,1-1.5-3.3h0a2.5,2.5,0,0,1,3.3-1.4h0a2.4,2.4,0,0,1,1.4,3.2h0a2.5,2.5,0,0,1-2.3,1.6h-.9Zm4.5-12a2.4,2.4,0,0,1-1.5-3.2h0a2.5,2.5,0,0,1,3.2-1.4h0a2.4,2.4,0,0,1,1.5,3.2h0a2.5,2.5,0,0,1-2.3,1.6h0Zm4.5-11.9a2.5,2.5,0,0,1-1.5-3.2h0a2.6,2.6,0,0,1,3.2-1.5h0a2.6,2.6,0,0,1,1.5,3.3h0a2.5,2.5,0,0,1-2.3,1.6h0Zm4.5-11.9a2.5,2.5,0,0,1-1.5-3.2h0a2.5,2.5,0,0,1,3.2-1.5h0a2.5,2.5,0,0,1,1.5,3.2h0a2.6,2.6,0,0,1-2.4,1.7h0Zm4.4-11.9a2.5,2.5,0,0,1-1.4-3.2h0a2.5,2.5,0,0,1,3.2-1.5h0a2.5,2.5,0,0,1,1.5,3.2h0a2.6,2.6,0,0,1-2.4,1.6h-.9Zm4.5-11.9a2.5,2.5,0,0,1-1.4-3.3h0a2.4,2.4,0,0,1,3.2-1.4h0a2.6,2.6,0,0,1,1.5,3.2h0a2.6,2.6,0,0,1-2.4,1.6h-.9Zm4.5-12a2.4,2.4,0,0,1-1.4-3.2h0a2.4,2.4,0,0,1,3.2-1.4h0a2.4,2.4,0,0,1,1.4,3.2h0a2.4,2.4,0,0,1-2.3,1.6h0A1.5,1.5,0,0,1,487.8,353.6Zm4.5-11.9a2.4,2.4,0,0,1-1.4-3.2h0a2.5,2.5,0,0,1,3.2-1.5h0a2.5,2.5,0,0,1,1.4,3.3h0a2.4,2.4,0,0,1-2.3,1.6h0Zm4.5-11.9a2.6,2.6,0,0,1-1.5-3.2h0a2.6,2.6,0,0,1,3.3-1.5h0a2.5,2.5,0,0,1,1.4,3.2h0a2.6,2.6,0,0,1-2.3,1.7h0Zm4.5-11.9a2.5,2.5,0,0,1-1.5-3.2h0a2.5,2.5,0,0,1,3.2-1.5h0a2.5,2.5,0,0,1,1.5,3.2h0a2.5,2.5,0,0,1-2.3,1.6h-.9Zm4.5-11.9a2.6,2.6,0,0,1-1.5-3.3h0a2.5,2.5,0,0,1,3.2-1.4h0a2.5,2.5,0,0,1,1.5,3.2h0a2.5,2.5,0,0,1-2.3,1.6h-.9Z"/><path class="bc7e6d7e-635c-4f51-a6f7-e1bc0d59bf13" d="M511.1,294.2a2.6,2.6,0,0,1-1.7-.7l-.3-.4-.3-.4c0-.2-.1-.3-.1-.5s-.1-.3-.1-.5a2.7,2.7,0,0,1,.8-1.8l.4-.3.4-.2h.5a2.5,2.5,0,0,1,2.2.6l.3.4.3.5v1.4c0,.2-.1.3-.2.5a.8.8,0,0,1-.2.4l-.3.4-.4.3-.4.2-.5.2Z"/><path class="bc7e6d7e-635c-4f51-a6f7-e1bc0d59bf13" d="M439.1,468.7a2.5,2.5,0,0,1-1.8-.8l-.3-.4a.5.5,0,0,1-.2-.4c-.1-.1-.1-.3-.2-.5v-.5a2.6,2.6,0,0,1,.7-1.7,2.5,2.5,0,0,1,2.3-.7h.4l.5.3.4.3a2.6,2.6,0,0,1,.7,1.7.7.7,0,0,1-.1.5.7.7,0,0,1-.1.5c-.1.2-.1.3-.2.4l-.3.4A2.7,2.7,0,0,1,439.1,468.7Z"/><path class="bc7e6d7e-635c-4f51-a6f7-e1bc0d59bf13" d="M442.5,456.5a2.4,2.4,0,0,1-1.5-3.2h0a2.6,2.6,0,0,1,3.2-1.5h0a2.5,2.5,0,0,1,1.5,3.2h0a2.6,2.6,0,0,1-2.3,1.7h0Zm4.3-11.9a2.5,2.5,0,0,1-1.5-3.2h0a2.6,2.6,0,0,1,3.2-1.6h0A2.6,2.6,0,0,1,450,443h0a2.5,2.5,0,0,1-2.4,1.7h-.8Zm4.3-12a2.6,2.6,0,0,1-1.6-3.2h0a2.5,2.5,0,0,1,3.2-1.5h0a2.4,2.4,0,0,1,1.5,3.2h0a2.4,2.4,0,0,1-2.3,1.6h-.8Zm4.2-12a2.5,2.5,0,0,1-1.5-3.2h0a2.5,2.5,0,0,1,3.2-1.5h0a2.5,2.5,0,0,1,1.5,3.2h0a2.5,2.5,0,0,1-2.3,1.7h0Zm4.3-12a2.4,2.4,0,0,1-1.5-3.2h0a2.5,2.5,0,0,1,3.2-1.5h0a2.6,2.6,0,0,1,1.5,3.2h0a2.6,2.6,0,0,1-2.4,1.7h0Zm4.3-11.9a2.6,2.6,0,0,1-1.6-3.2h0a2.5,2.5,0,0,1,3.2-1.5h0a2.6,2.6,0,0,1,1.6,3.2h0a2.6,2.6,0,0,1-2.4,1.6h-.8Zm4.2-12a2.5,2.5,0,0,1-1.5-3.2h0a2.5,2.5,0,0,1,3.2-1.5h0a2.5,2.5,0,0,1,1.5,3.2h0a2.4,2.4,0,0,1-2.3,1.6h-.9Zm4.3-12a2.4,2.4,0,0,1-1.5-3.2h0a2.5,2.5,0,0,1,3.2-1.5h0a2.5,2.5,0,0,1,1.5,3.2h0a2.6,2.6,0,0,1-2.4,1.7h0Zm4.3-11.9a2.6,2.6,0,0,1-1.6-3.2h0a2.6,2.6,0,0,1,3.2-1.6h0a2.6,2.6,0,0,1,1.6,3.2h0a2.5,2.5,0,0,1-2.4,1.7h-.8Zm4.2-12a2.6,2.6,0,0,1-1.5-3.2h0a2.5,2.5,0,0,1,3.2-1.5h0a2.4,2.4,0,0,1,1.5,3.2h0a2.4,2.4,0,0,1-2.3,1.6h-.9Z"/><path class="bc7e6d7e-635c-4f51-a6f7-e1bc0d59bf13" d="M486,337h-.9l-.4-.3-.4-.3-.3-.4-.3-.4a4.3,4.3,0,0,1-.1-.5c0-.1-.1-.3-.1-.4a4664550796216,4664550796216,0,0,0,.2-1l.3-.4.3-.4.4-.3.4-.3h.4a2.4,2.4,0,0,1,2.3.7,2.3,2.3,0,0,1,.7,1.8v.4a.8.8,0,0,1-.2.5.5.5,0,0,1-.2.4l-.3.4A2.5,2.5,0,0,1,486,337Z"/><path class="bc7e6d7e-635c-4f51-a6f7-e1bc0d59bf13" d="M433.2,526.1h-.9l-.5-.3-.3-.3a2.3,2.3,0,0,1-.8-1.7,2.5,2.5,0,0,1,.8-1.8l.3-.3.5-.3h.4a1.7,1.7,0,0,1,1,0h.5l.4.3.4.3a2.4,2.4,0,0,1,.7,1.8,2.2,2.2,0,0,1-.7,1.7l-.4.3-.4.3h-1Z"/><path class="bc7e6d7e-635c-4f51-a6f7-e1bc0d59bf13" d="M436.8,514a2.4,2.4,0,0,1-1.4-3.2h0a2.5,2.5,0,0,1,3.2-1.5h0a2.6,2.6,0,0,1,1.5,3.2h0a2.6,2.6,0,0,1-2.4,1.6h-.9Zm4.5-11.9a2.5,2.5,0,0,1-1.4-3.3h0a2.4,2.4,0,0,1,3.2-1.4h0a2.4,2.4,0,0,1,1.4,3.2h0a2.4,2.4,0,0,1-2.3,1.6h-.9Zm4.5-12a2.5,2.5,0,0,1-1.5-3.2h0a2.5,2.5,0,0,1,3.3-1.4h0a2.4,2.4,0,0,1,1.4,3.2h0a2.5,2.5,0,0,1-2.3,1.6h0Zm4.5-11.9a2.6,2.6,0,0,1-1.5-3.2h0a2.7,2.7,0,0,1,3.3-1.5h0a2.6,2.6,0,0,1,1.4,3.3h0a2.5,2.5,0,0,1-2.3,1.6h0Zm4.5-11.9a2.5,2.5,0,0,1-1.5-3.2h0a2.5,2.5,0,0,1,3.2-1.5h0a2.5,2.5,0,0,1,1.5,3.2h0a2.6,2.6,0,0,1-2.3,1.7h0Zm4.5-11.9a2.5,2.5,0,0,1-1.5-3.2h0a2.5,2.5,0,0,1,3.2-1.5h0a2.5,2.5,0,0,1,1.5,3.2h0a2.5,2.5,0,0,1-2.3,1.6h-.9Zm4.5-11.9a2.6,2.6,0,0,1-1.5-3.3h0a2.5,2.5,0,0,1,3.2-1.4h0A2.5,2.5,0,0,1,467,441h0a2.5,2.5,0,0,1-2.4,1.6h-.8Zm4.4-12a2.5,2.5,0,0,1-1.4-3.2h0a2.4,2.4,0,0,1,3.2-1.4h0a2.5,2.5,0,0,1,1.5,3.2h0a2.6,2.6,0,0,1-2.4,1.6h0A1.5,1.5,0,0,1,468.2,430.5Zm4.5-11.9a2.4,2.4,0,0,1-1.4-3.2h0a2.6,2.6,0,0,1,3.2-1.5h0a2.7,2.7,0,0,1,1.5,3.3h0a2.6,2.6,0,0,1-2.4,1.6h0Zm4.5-11.9a2.4,2.4,0,0,1-1.4-3.2h0A2.4,2.4,0,0,1,479,402h0a2.5,2.5,0,0,1,1.4,3.2h0a2.3,2.3,0,0,1-2.3,1.7h0Zm4.5-11.9a2.4,2.4,0,0,1-1.4-3.2h0a2.4,2.4,0,0,1,3.2-1.5h0a2.4,2.4,0,0,1,1.4,3.2h0a2.5,2.5,0,0,1-2.3,1.7h0Zm4.5-11.9a2.5,2.5,0,0,1-1.5-3.2h0a2.6,2.6,0,0,1,3.3-1.5h0a2.4,2.4,0,0,1,1.4,3.2h0a2.5,2.5,0,0,1-2.3,1.6h-.9Zm4.5-11.9a2.6,2.6,0,0,1-1.5-3.3h0a2.5,2.5,0,0,1,3.2-1.4h0a2.5,2.5,0,0,1,1.5,3.2h0a2.5,2.5,0,0,1-2.3,1.6h-.9Zm4.5-12a2.5,2.5,0,0,1-1.5-3.2h0a2.4,2.4,0,0,1,3.2-1.4h0a2.4,2.4,0,0,1,1.5,3.2h0a2.5,2.5,0,0,1-2.3,1.6h0Z"/><path class="bc7e6d7e-635c-4f51-a6f7-e1bc0d59bf13" d="M500.5,347.3h-.9l-.4-.2a.8.8,0,0,1-.4-.4,2.3,2.3,0,0,1-.8-1.7,4.3,4.3,0,0,1,.1-.5c0-.2.1-.3.1-.5l.3-.4.3-.4.4-.3a.5.5,0,0,1,.4-.2l.5-.2h.9l.5.2.4.2.4.3.3.4a.8.8,0,0,1,.2.4c.1.2.2.3.2.5v1l-.2.4c0,.2-.1.3-.2.5l-.3.3a.8.8,0,0,1-.4.4l-.4.2h-1Z"/><path class="bc7e6d7e-635c-4f51-a6f7-e1bc0d59bf13" d="M444.2,516.6h-1l-.4-.3c-.2,0-.3-.2-.4-.3l-.3-.3c-.1-.2-.2-.3-.2-.5a.8.8,0,0,1-.2-.4v-1c0-.2.1-.3.2-.5a.8.8,0,0,1,.2-.4l.3-.4.4-.3.4-.2.5-.2a1.7,1.7,0,0,1,1,0l.4.2.5.2.3.3c.2.1.3.2.3.4l.3.4c0,.2.1.3.1.5a.7.7,0,0,1,.1.5,1.1,1.1,0,0,1-.1.5c0,.1-.1.3-.1.4l-.3.5c0,.1-.2.2-.3.3A2.3,2.3,0,0,1,444.2,516.6Z"/><path class="bc7e6d7e-635c-4f51-a6f7-e1bc0d59bf13" d="M448.3,503.8a2.5,2.5,0,0,1-1.4-3.3h0a2.5,2.5,0,0,1,3.3-1.4h0a2.5,2.5,0,0,1,1.3,3.3h0a2.4,2.4,0,0,1-2.3,1.6h0Zm5-12.6a2.5,2.5,0,0,1-1.3-3.3h0a2.4,2.4,0,0,1,3.2-1.4h0a2.6,2.6,0,0,1,1.4,3.3h0a2.5,2.5,0,0,1-2.3,1.6h0Zm5.1-12.6a2.5,2.5,0,0,1-1.4-3.3h0a2.5,2.5,0,0,1,3.3-1.4h0a2.6,2.6,0,0,1,1.4,3.3h0a2.6,2.6,0,0,1-2.4,1.6h0Zm5.1-12.6a2.5,2.5,0,0,1-1.4-3.3h0a2.4,2.4,0,0,1,3.2-1.4h0a2.5,2.5,0,0,1,1.4,3.3h0a2.4,2.4,0,0,1-2.3,1.5h-.9Zm5-12.6a2.5,2.5,0,0,1-1.4-3.3h0a2.5,2.5,0,0,1,3.3-1.4h0a2.5,2.5,0,0,1,1.4,3.3h0a2.5,2.5,0,0,1-2.4,1.5h-.9Z"/><path class="bc7e6d7e-635c-4f51-a6f7-e1bc0d59bf13" d="M474.5,440.9H474l-.5-.2-.4-.2-.4-.3a2.9,2.9,0,0,1-.7-1.8.6.6,0,0,1,.1-.4.7.7,0,0,1,.1-.5l.2-.4.3-.4a2.5,2.5,0,0,1,2.3-.7h.5l.4.3.4.3.3.4a.5.5,0,0,1,.2.4c.1.1.1.3.2.5v.4a2.9,2.9,0,0,1-.7,1.8l-.4.3-.4.2-.5.2Z"/><path class="bc7e6d7e-635c-4f51-a6f7-e1bc0d59bf13" d="M450.2,526.6h-.9l-.5-.2-.4-.4-.3-.3-.2-.5a.6.6,0,0,1-.1-.4,1.1,1.1,0,0,1-.1-.5,2.9,2.9,0,0,1,.7-1.8,2.8,2.8,0,0,1,2.3-.7l.5.2.4.2.4.3.3.4a.8.8,0,0,1,.2.4l.2.5v1c-.1.1-.1.3-.2.4s-.1.3-.2.5l-.3.3A2.5,2.5,0,0,1,450.2,526.6Z"/><path class="bc7e6d7e-635c-4f51-a6f7-e1bc0d59bf13" d="M453.6,515.6a2.5,2.5,0,0,1-1.4-3.3h0a2.5,2.5,0,0,1,3.3-1.4h0a2.5,2.5,0,0,1,1.4,3.3h0a2.6,2.6,0,0,1-2.3,1.6h0Zm4.4-10.8a2.6,2.6,0,0,1-1.4-3.3h0a2.4,2.4,0,0,1,3.2-1.4h0a2.5,2.5,0,0,1,1.4,3.3h0a2.5,2.5,0,0,1-2.3,1.5H458Zm4.3-10.9a2.4,2.4,0,0,1-1.4-3.2h0a2.5,2.5,0,0,1,3.3-1.4h0a2.6,2.6,0,0,1,1.4,3.2h0a2.6,2.6,0,0,1-2.4,1.6h0A1.5,1.5,0,0,1,462.3,493.9Z"/><path class="bc7e6d7e-635c-4f51-a6f7-e1bc0d59bf13" d="M467.6,483.3h-1l-.4-.2-.4-.3-.3-.4c-.1-.2-.2-.3-.2-.5s-.1-.3-.2-.4v-1l.2-.5a.8.8,0,0,1,.2-.4l.3-.4.4-.3.4-.2.5-.2a2.5,2.5,0,0,1,2.2.7l.4.4c.1.1.1.3.2.4a.9.9,0,0,1,.1.5,1.3,1.3,0,0,1,0,1,.6.6,0,0,1-.1.4l-.2.5-.4.4A2.6,2.6,0,0,1,467.6,483.3Z"/><path class="bc7e6d7e-635c-4f51-a6f7-e1bc0d59bf13" d="M453.7,591.2a2.4,2.4,0,0,1-2.5-2.5,3.1,3.1,0,0,1,.7-1.8,2.7,2.7,0,0,1,2.3-.6h.4l.5.2.4.3.3.4.2.5a.6.6,0,0,1,.1.4.9.9,0,0,1,.1.5,2.9,2.9,0,0,1-.7,1.8A3.1,3.1,0,0,1,453.7,591.2Z"/><path class="bc7e6d7e-635c-4f51-a6f7-e1bc0d59bf13" d="M458.4,577a2.6,2.6,0,0,1-1.4-3.3h0a2.5,2.5,0,0,1,3.3-1.4h0a2.6,2.6,0,0,1,1.4,3.3h0a2.7,2.7,0,0,1-2.4,1.5h-.9Z"/><path class="bc7e6d7e-635c-4f51-a6f7-e1bc0d59bf13" d="M465,563.1h-1l-.4-.3-.4-.3-.3-.4a.5.5,0,0,1-.2-.4c-.1-.1-.1-.3-.2-.5v-.9c.1-.2.1-.4.2-.5a.5.5,0,0,1,.2-.4l.3-.4.4-.3.4-.3h.5a1.7,1.7,0,0,1,1,0h.4l.5.3.4.3.3.4c.1.1.1.2.2.4a4664550796216.5,4664550796216.5,0,0,0,.2,1,.6.6,0,0,1-.1.4.7.7,0,0,1-.1.5l-.2.4-.3.4-.4.3-.5.3H465Z"/><path class="bc7e6d7e-635c-4f51-a6f7-e1bc0d59bf13" d="M455.5,602.4h-1l-.4-.3-.4-.3-.3-.4c-.1-.1-.1-.2-.2-.4a.7.7,0,0,1-.1-.5.6.6,0,0,1-.1-.4,2.9,2.9,0,0,1,.7-1.8,2.5,2.5,0,0,1,2.3-.7l.5.2.4.2.4.3.3.4c.1.1.1.3.2.4l.2.5v.9c-.1.2-.1.4-.2.5s-.1.3-.2.4l-.3.4-.4.3-.4.3h-1Z"/><path class="bc7e6d7e-635c-4f51-a6f7-e1bc0d59bf13" d="M460.2,588.1a2.5,2.5,0,0,1-1.4-3.3h0a2.5,2.5,0,0,1,3.3-1.3h0a2.4,2.4,0,0,1,1.4,3.2h0a2.6,2.6,0,0,1-2.3,1.6h0Z"/><path class="bc7e6d7e-635c-4f51-a6f7-e1bc0d59bf13" d="M466.8,574.2h-1l-.4-.2-.4-.3-.3-.4c-.1-.1-.1-.3-.2-.4a1.1,1.1,0,0,1-.1-.5,1.3,1.3,0,0,1,0-1,1.1,1.1,0,0,1,.1-.5c.1-.1.1-.3.2-.4l.3-.4.4-.3.4-.2.5-.2a3.2,3.2,0,0,1,2.3.7l.3.4c.1.1.1.3.2.4s.1.4.2.5v.5a2.4,2.4,0,0,1-2.5,2.5Z"/><path class="bc7e6d7e-635c-4f51-a6f7-e1bc0d59bf13" d="M461.2,609h-.5l-.4-.2-.5-.2-.3-.3c-.1-.1-.3-.3-.3-.4l-.3-.4c0-.2-.1-.3-.1-.5s-.1-.3-.1-.5.1-.3.1-.5a4.3,4.3,0,0,0,.1-.5l.3-.4c0-.1.2-.2.3-.4l.3-.3.5-.2h.4a2.6,2.6,0,0,1,2.3.6l.3.4c.1.2.2.3.2.4a1.7,1.7,0,0,1,.2.5v1c0,.2-.1.3-.2.5a.8.8,0,0,1-.2.4l-.3.4-.4.3-.4.2-.5.2Z"/><path class="bc7e6d7e-635c-4f51-a6f7-e1bc0d59bf13" d="M465.2,596.7a2.5,2.5,0,0,1-1.4-3.2h0a2.4,2.4,0,0,1,3.2-1.4h0a2.4,2.4,0,0,1,1.4,3.2h0a2.5,2.5,0,0,1-2.3,1.6h0Zm4.8-12.1a2.5,2.5,0,0,1-1.4-3.3h0a2.5,2.5,0,0,1,3.3-1.3h0a2.4,2.4,0,0,1,1.4,3.2h0a2.6,2.6,0,0,1-2.3,1.6h0Z"/><path class="bc7e6d7e-635c-4f51-a6f7-e1bc0d59bf13" d="M475.8,572.7a2.7,2.7,0,0,1-1.8-.8,2.6,2.6,0,0,1-.7-1.7.7.7,0,0,1,.1-.5.9.9,0,0,1,.1-.5c.1-.1.1-.3.2-.4l.3-.4.4-.3.5-.2.4-.2a1.7,1.7,0,0,1,1,0l.5.2.4.2.4.3.3.4a.8.8,0,0,1,.2.4l.2.5v1c-.1.1-.1.3-.2.4s-.1.3-.2.5l-.3.3-.4.3-.4.3h-1Z"/><path class="bc7e6d7e-635c-4f51-a6f7-e1bc0d59bf13" d="M463.1,620.1h-1l-.4-.3-.4-.3a2.6,2.6,0,0,1-.7-1.7,2.7,2.7,0,0,1,.7-1.8l.4-.3.4-.3h.5a2.5,2.5,0,0,1,2.3.7l.3.4c.1.1.1.2.2.4a.7.7,0,0,1,.1.5.7.7,0,0,1,.1.5,2.6,2.6,0,0,1-.7,1.7A2.4,2.4,0,0,1,463.1,620.1Z"/><path class="bc7e6d7e-635c-4f51-a6f7-e1bc0d59bf13" d="M467,607.9a2.6,2.6,0,0,1-1.4-3.3h0a2.5,2.5,0,0,1,3.3-1.4h0a2.5,2.5,0,0,1,1.4,3.3h0A2.6,2.6,0,0,1,468,608h-1Zm4.9-12.2a2.4,2.4,0,0,1-1.4-3.2h0a2.5,2.5,0,0,1,3.2-1.4h0a2.5,2.5,0,0,1,1.4,3.3h0a2.5,2.5,0,0,1-2.3,1.5h0A1.5,1.5,0,0,1,471.9,595.7Z"/><path class="bc7e6d7e-635c-4f51-a6f7-e1bc0d59bf13" d="M477.7,583.8h-.5l-.5-.2-.4-.2-.4-.3-.3-.4a.8.8,0,0,1-.2-.4l-.2-.5v-1c.1-.1.1-.3.2-.4s.1-.3.2-.5l.3-.4.4-.3.4-.2h.5a1.7,1.7,0,0,1,1,0h.4l.5.2.3.3.4.4c0,.2.1.3.2.5s.1.3.1.4a1.3,1.3,0,0,1,0,1c0,.2-.1.3-.1.5a.8.8,0,0,0-.2.4c-.1.1-.2.3-.4.4l-.3.3-.5.2-.4.2Z"/><path class="bc7e6d7e-635c-4f51-a6f7-e1bc0d59bf13" d="M527.1,281.2c2.8,0,2.8-4.4,0-4.4a2.2,2.2,0,0,0,0,4.4Z"/><path class="bc7e6d7e-635c-4f51-a6f7-e1bc0d59bf13" d="M523.1,288.5a2.2,2.2,0,0,0,0-4.4c-2.8,0-2.8,4.4,0,4.4Z"/><path class="bc7e6d7e-635c-4f51-a6f7-e1bc0d59bf13" d="M532.2,279.5c2.8,0,2.8-4.4,0-4.4a2.2,2.2,0,0,0,0,4.4Z"/><path class="bc7e6d7e-635c-4f51-a6f7-e1bc0d59bf13" d="M548.3,259.9a2.2,2.2,0,0,0,0-4.4c-2.8,0-2.8,4.4,0,4.4Z"/><path class="bc7e6d7e-635c-4f51-a6f7-e1bc0d59bf13" d="M513.1,300.3c2.9,0,2.9-4.5,0-4.5s-2.9,4.5,0,4.5Z"/><path class="bc7e6d7e-635c-4f51-a6f7-e1bc0d59bf13" d="M518.9,299.4a2.2,2.2,0,0,0,0-4.4,2.2,2.2,0,0,0,0,4.4Z"/><path class="bc7e6d7e-635c-4f51-a6f7-e1bc0d59bf13" d="M509.5,312.9c2.9,0,2.9-4.5,0-4.5s-2.8,4.5,0,4.5Z"/><path class="bc7e6d7e-635c-4f51-a6f7-e1bc0d59bf13" d="M502.9,312a2.2,2.2,0,0,0,0-4.4,2.2,2.2,0,0,0,0,4.4Z"/><path class="bc7e6d7e-635c-4f51-a6f7-e1bc0d59bf13" d="M503.1,324.6c2.8,0,2.8-4.4,0-4.4a2.2,2.2,0,0,0,0,4.4Z"/><path class="bc7e6d7e-635c-4f51-a6f7-e1bc0d59bf13" d="M494.9,325.1a2.2,2.2,0,0,0,0-4.4,2.2,2.2,0,0,0,0,4.4Z"/><path class="bc7e6d7e-635c-4f51-a6f7-e1bc0d59bf13" d="M487.4,346.1c2.9,0,2.9-4.5,0-4.5s-2.9,4.5,0,4.5Z"/><path class="bc7e6d7e-635c-4f51-a6f7-e1bc0d59bf13" d="M476.3,366.5a2.2,2.2,0,0,0,0-4.4c-2.8,0-2.8,4.4,0,4.4Z"/><path class="bc7e6d7e-635c-4f51-a6f7-e1bc0d59bf13" d="M475,381.7c2.8,0,2.8-4.5,0-4.5s-2.9,4.5,0,4.5Z"/><path class="bc7e6d7e-635c-4f51-a6f7-e1bc0d59bf13" d="M468.5,391.2c2.9,0,2.9-4.5,0-4.5s-2.9,4.5,0,4.5Z"/><path class="bc7e6d7e-635c-4f51-a6f7-e1bc0d59bf13" d="M472.2,395.9a2.2,2.2,0,0,0,0-4.4c-2.8,0-2.8,4.4,0,4.4Z"/><path class="bc7e6d7e-635c-4f51-a6f7-e1bc0d59bf13" d="M460.8,402.8c2.9,0,2.9-4.5,0-4.5s-2.8,4.5,0,4.5Z"/><path class="bc7e6d7e-635c-4f51-a6f7-e1bc0d59bf13" d="M465.4,405c2.9,0,2.9-4.5,0-4.5s-2.8,4.5,0,4.5Z"/><path class="bc7e6d7e-635c-4f51-a6f7-e1bc0d59bf13" d="M457.8,414.5c2.8,0,2.8-4.4,0-4.4a2.2,2.2,0,0,0,0,4.4Z"/><path class="bc7e6d7e-635c-4f51-a6f7-e1bc0d59bf13" d="M462.4,418.4c2.8,0,2.8-4.4,0-4.4a2.2,2.2,0,0,0,0,4.4Z"/><path class="bc7e6d7e-635c-4f51-a6f7-e1bc0d59bf13" d="M467,421c2.8,0,2.8-4.5,0-4.5s-2.9,4.5,0,4.5Z"/><path class="bc7e6d7e-635c-4f51-a6f7-e1bc0d59bf13" d="M455.6,426.8c2.8,0,2.8-4.5,0-4.5s-2.9,4.5,0,4.5Z"/><path class="bc7e6d7e-635c-4f51-a6f7-e1bc0d59bf13" d="M451.8,440.9c2.9,0,2.9-4.5,0-4.5s-2.8,4.5,0,4.5Z"/><path class="bc7e6d7e-635c-4f51-a6f7-e1bc0d59bf13" d="M459.7,430.8c2.8,0,2.8-4.4,0-4.4a2.2,2.2,0,0,0,0,4.4Z"/><path class="bc7e6d7e-635c-4f51-a6f7-e1bc0d59bf13" d="M464.4,435.6a2.2,2.2,0,0,0,0-4.4c-2.8,0-2.8,4.4,0,4.4Z"/><path class="bc7e6d7e-635c-4f51-a6f7-e1bc0d59bf13" d="M458,444.5c2.8,0,2.8-4.5,0-4.5s-2.9,4.5,0,4.5Z"/><path class="bc7e6d7e-635c-4f51-a6f7-e1bc0d59bf13" d="M462,449.2a2.2,2.2,0,0,0,0-4.4c-2.8,0-2.8,4.4,0,4.4Z"/><path class="bc7e6d7e-635c-4f51-a6f7-e1bc0d59bf13" d="M450.3,455.2c2.9,0,2.9-4.5,0-4.5s-2.9,4.5,0,4.5Z"/><path class="bc7e6d7e-635c-4f51-a6f7-e1bc0d59bf13" d="M454.7,458.8c2.9,0,2.9-4.5,0-4.5s-2.9,4.5,0,4.5Z"/><path class="bc7e6d7e-635c-4f51-a6f7-e1bc0d59bf13" d="M460.5,461.8a2.2,2.2,0,0,0,0-4.4,2.2,2.2,0,0,0,0,4.4Z"/><path class="bc7e6d7e-635c-4f51-a6f7-e1bc0d59bf13" d="M448.2,467.6a2.2,2.2,0,0,0,0-4.4c-2.8,0-2.8,4.4,0,4.4Z"/><path class="bc7e6d7e-635c-4f51-a6f7-e1bc0d59bf13" d="M452.7,472c2.8,0,2.8-4.4,0-4.4a2.2,2.2,0,0,0,0,4.4Z"/><path class="bc7e6d7e-635c-4f51-a6f7-e1bc0d59bf13" d="M458.3,471.9c2.9,0,2.9-4.5,0-4.5s-2.9,4.5,0,4.5Z"/><path class="bc7e6d7e-635c-4f51-a6f7-e1bc0d59bf13" d="M447.6,484.3c2.8,0,2.8-4.5,0-4.5s-2.9,4.5,0,4.5Z"/><path class="bc7e6d7e-635c-4f51-a6f7-e1bc0d59bf13" d="M454.2,483.3c2.9,0,2.9-4.5,0-4.5s-2.9,4.5,0,4.5Z"/><path class="bc7e6d7e-635c-4f51-a6f7-e1bc0d59bf13" d="M457.4,497.1c2.9,0,2.9-4.5,0-4.5s-2.8,4.5,0,4.5Z"/><path class="bc7e6d7e-635c-4f51-a6f7-e1bc0d59bf13" d="M447.7,496.2a2.2,2.2,0,0,0,0-4.4c-2.8,0-2.8,4.4,0,4.4Z"/><path class="bc7e6d7e-635c-4f51-a6f7-e1bc0d59bf13" d="M453.4,509.3c2.8,0,2.8-4.4,0-4.4a2.2,2.2,0,0,0,0,4.4Z"/><path class="bc7e6d7e-635c-4f51-a6f7-e1bc0d59bf13" d="M448.1,512.7c2.8,0,2.8-4.4,0-4.4a2.2,2.2,0,0,0,0,4.4Z"/><path class="bc7e6d7e-635c-4f51-a6f7-e1bc0d59bf13" d="M464.2,581.1a2.2,2.2,0,0,0,0-4.4c-2.8,0-2.8,4.4,0,4.4Z"/><path class="bc7e6d7e-635c-4f51-a6f7-e1bc0d59bf13" d="M1112,279.6c-1.2-4.2-1.3-8.4-4.4-11.3s-7.1-2.9-11.2-3.9c1.9-.4,3.5-.9,5.2-1.1,5.5-1,8.4-4.4,9.4-9.8.2-1.2.5-2.5.9-4.2.7,2.7,1.3,4.8,1.9,7,1.1,4.2,4.3,6,8.2,6.9l5.3,1.2-6.8,1.7c-4.2,1-6.2,3.9-7.2,7.8Z"/><path class="bc7e6d7e-635c-4f51-a6f7-e1bc0d59bf13" d="M1112,281.5l-.5-1.8c-.3-1.1-.5-2.2-.8-3.2-.6-3-1.3-5.8-3.5-7.8s-5.3-2.7-8.5-3.3l-2.5-.5-2.1-.4,2.1-.5,1.9-.5,3.4-.7c5-.9,8-4,9-9.4a13.8,13.8,0,0,1,.6-2.6l.3-1.6.5-2,1.1,4.4c.5,1.6.9,3.1,1.3,4.6.9,3.4,3.4,5.5,7.8,6.5l3.6.8,3.8.8-4.3,1.1-4.6,1.2c-3.6.8-5.7,3.2-6.8,7.4-.3,1.2-.5,2.3-.9,3.7Zm-13.3-17.1h.2c3.3.7,6.5,1.2,9,3.6s3.1,5.1,3.8,8.3l.3,1.2h0c.3-1.3.5-2.5.8-3.6,1.2-4.6,3.7-7.3,7.6-8.2l4.5-1.1h.3l-3.3-.7c-3-.7-7.2-2.3-8.6-7.3-.4-1.4-.8-2.9-1.2-4.6l-.2-.5c-.1.8-.3,1.6-.4,2.3-1.1,5.8-4.4,9.2-9.9,10.1Z"/><path class="bc7e6d7e-635c-4f51-a6f7-e1bc0d59bf13" d="M493.6,334.6c3.2,0,3.2-5,0-5s-3.3,5,0,5Z"/><path class="bc7e6d7e-635c-4f51-a6f7-e1bc0d59bf13" d="M482.8,358c3.3,0,3.3-5,0-5s-3.2,5,0,5Z"/><path class="bc7e6d7e-635c-4f51-a6f7-e1bc0d59bf13" d="M480.3,371.1c3.2,0,3.2-5,0-5s-3.2,5,0,5Z"/><path class="bc7e6d7e-635c-4f51-a6f7-e1bc0d59bf13" d="M469.6,377.7c3.2,0,3.2-5,0-5s-3.3,5,0,5Z"/><path class="bc7e6d7e-635c-4f51-a6f7-e1bc0d59bf13" d="M540,273.5c3.3,0,3.3-5,0-5s-3.2,5,0,5Z"/><path class="bc7e6d7e-635c-4f51-a6f7-e1bc0d59bf13" d="M539,266.6c3.2,0,3.2-5,0-5s-3.2,5,0,5Z"/><path class="bc7e6d7e-635c-4f51-a6f7-e1bc0d59bf13" d="M208.8,343.7c28.4-1.9,56.9-2.8,85.4-3.6s56.9-.9,85.4-.9,57,.3,85.5.9,56.9,1.7,85.4,3.6c-28.5,1.9-57,2.8-85.4,3.5s-57,1-85.5,1-56.9-.3-85.4-1S237.2,345.5,208.8,343.7Z"/><path class="bc7e6d7e-635c-4f51-a6f7-e1bc0d59bf13" d="M284.5,362c21.1-1.8,42.3-2.8,63.4-3.5s42.2-.9,63.3-.9,42.2.3,63.3.9,42.3,1.7,63.4,3.5c-21.1,1.9-42.2,2.9-63.4,3.6s-42.2,1-63.3.9-42.2-.3-63.3-.9S305.6,363.9,284.5,362Z"/></g></svg>