<svg id="f39f4abe-e618-4cec-af6d-143e14d1871a" data-name="Capa 1" xmlns="http://www.w3.org/2000/svg" viewBox="0 0 1348.1 766"><defs><style>.b4738c88-5e38-4e8f-a8db-077fd60fd127{fill:#13017c;stroke:#13017c;stroke-miterlimit:10;}</style></defs><path class="b4738c88-5e38-4e8f-a8db-077fd60fd127" d="M427.4,209.3c4.1-18.4,10.6-31.6,19.6-39.7s21.3-12,36.9-11.8a44,44,0,0,1,19.6,4.3,43.3,43.3,0,0,1,15,11.8,45.9,45.9,0,0,1,8.9,17.8,56.2,56.2,0,0,1,1.3,22.2c-1.7,12.3-2.8,23.9-3.3,34.9s-.5,22,0,33.1,1.6,22.8,3.1,35,3.6,25.7,6.3,40.7c.8,4.7-.1,8.4-2.6,11s-6.2,4-10.9,4H461.4c-4.7,0-8.3-1.3-10.8-4s-3.5-6.3-2.7-11c.5-2.9,1.3-7.7,2.5-14.5s2.5-14.4,3.7-23.1,2.2-17.9,3.1-27.7a216.9,216.9,0,0,0,.6-27.7c-.4-8.8-2.5-15.4-6.2-19.7s-7.9-6.4-12.6-6.4-8.2,1.9-11.9,5.8-6,9.8-6.8,17.8.2,14.3.5,21.5.9,14.6,1.7,22.3,1.8,15.7,3,24.2,2.7,17.6,4.3,27.5c.9,4.7,0,8.4-2.6,11s-6.2,4-10.9,4H356.5c-4.7,0-8.4-1.3-10.9-4s-3.4-6.3-2.6-11c.4-2.9,1.2-7.7,2.4-14.5s2.5-14.4,3.7-23.1,2.3-17.9,3.1-27.7a216.9,216.9,0,0,0,.6-27.7c-.4-8.8-2.5-15.4-6.1-19.8s-7.9-6.6-12.6-6.6-9,2.2-12.8,6.6-5.8,11-6.2,19.8a188.5,188.5,0,0,0,.6,27.9c.8,9.8,1.8,19.1,3,27.8s2.5,16.4,3.7,23.1,2.1,11.5,2.5,14.2c.8,4.7-.1,8.4-2.6,11s-6.2,4-10.9,4H251.5c-4.7,0-8.3-1.3-10.9-4s-3.4-6.3-2.6-11c2.3-12.5,4.1-24,5.5-34.6s2.5-20.5,3.3-30,1-18.8.9-27.8-.5-18.3-1.1-27.8-1.7-19.5-3.2-30.1-3.3-22-5.4-34.5c-.8-4.7.1-8.4,2.6-11s6.2-4,10.9-4h46.4q6.5,0,9.9,1.8t5.1,7.2c1,3.6,1.4,8.5,1.2,14.8s-.9,14.3-2.1,24.4c-.4,2.8.1,5,1.7,6.6a7,7,0,0,0,5,2.3,7.3,7.3,0,0,0,4.6-1.7c1.5-1.2,2.4-3,2.8-5.7,2.7-18.2,8.1-31.1,16.3-38.7s19.3-11.2,33.4-11a50.9,50.9,0,0,1,18.1,3,32.6,32.6,0,0,1,13.1,9.1,34.8,34.8,0,0,1,7,15c1.4,6.1,1.3,13.3-.1,21.7-.4,3.2,0,5.7,1.4,7.3a5.8,5.8,0,0,0,4.7,2.5,7,7,0,0,0,4.5-1.7A9.9,9.9,0,0,0,427.4,209.3Z"/><path class="b4738c88-5e38-4e8f-a8db-077fd60fd127" d="M662.8,320.4c-3.9,17.2-10.8,30.3-20.6,39.2s-22.3,13.2-37.4,13a45.6,45.6,0,0,1-20.7-4.6,50.9,50.9,0,0,1-16-12.1,48.1,48.1,0,0,1-9.7-17.8,52.4,52.4,0,0,1-1.5-21.7c1.6-12.2,2.7-23.8,3.2-34.8s.5-22,0-33.1-1.5-22.8-3.1-35-3.6-25.8-6.2-40.7c-.9-4.7,0-8.4,2.6-11s6.1-4,10.9-4h59.8c4.7,0,8.1,1.3,10.1,4s3.2,6.3,3.4,11a126.6,126.6,0,0,1-.9,23.3c-1,7.4-2.2,14.8-3.4,22.3s-2.4,15-3.5,22.7a174.3,174.3,0,0,0-1.7,24.7c0,8.8,2.2,15.3,6.7,19.6s9.5,6.5,14.8,6.5,10.5-2.2,15-6.5,6.8-10.8,6.8-19.6a178.2,178.2,0,0,0-1.7-24.9c-1.1-7.7-2.3-15.3-3.6-22.7s-2.3-14.7-3.2-22.2a147.5,147.5,0,0,1-1-23.2c.2-4.7,1.3-8.4,3.3-11s5.4-4,10.2-4h59.8c4.7,0,8.3,1.3,10.9,4s3.4,6.3,2.6,11c-2,12.5-3.8,24-5.2,34.5s-2.5,20.6-3.2,30.1-1.1,18.8-1.1,27.8.3,18.2,1.1,27.8,1.8,19.5,3.2,30,3.2,22.1,5.2,34.6c.8,4.7,0,8.4-2.6,11s-6.2,4-10.9,4H688.9c-4.9,0-8.9-.8-11.9-2.5a12.9,12.9,0,0,1-6.1-8.1q-1.6-5.7-.9-15a189.7,189.7,0,0,1,3.8-23.5q.9-4.3-.9-6.3a5.8,5.8,0,0,0-4.3-2,5.9,5.9,0,0,0-3.5,1.2A6.4,6.4,0,0,0,662.8,320.4Z"/><path class="b4738c88-5e38-4e8f-a8db-077fd60fd127" d="M427.5,446.7c4.1-18.3,10.6-31.6,19.6-39.6s21.2-12,36.7-11.8a43.8,43.8,0,0,1,34.6,16.1,47.5,47.5,0,0,1,8.8,17.7,56.2,56.2,0,0,1,1.3,22.2c-1.7,12.2-2.8,23.8-3.3,34.7s-.5,22,0,33.1,1.6,22.7,3.1,34.9,3.6,25.6,6.3,40.5c.8,4.7-.1,8.4-2.6,11s-6.2,4-10.9,4H461.4c-4.7,0-8.3-1.3-10.8-4s-3.4-6.3-2.6-11q.6-4.2,2.4-14.4c1.2-6.7,2.5-14.4,3.7-23.1s2.2-17.8,3.1-27.5a216.9,216.9,0,0,0,.6-27.7c-.4-8.8-2.5-15.3-6.2-19.6s-7.8-6.4-12.5-6.4-8.3,1.9-11.9,5.8-6,9.8-6.8,17.7.2,14.3.5,21.5.9,14.5,1.7,22.2,1.8,15.7,3,24.1,2.7,17.6,4.3,27.4c.8,4.7,0,8.4-2.6,11s-6.2,4-10.8,4H356.8c-4.7,0-8.3-1.3-10.9-4s-3.4-6.3-2.6-11c.4-2.8,1.2-7.6,2.5-14.4s2.4-14.4,3.6-23.1,2.3-17.8,3.1-27.5a216.9,216.9,0,0,0,.6-27.7c-.4-8.8-2.4-15.4-6.1-19.7s-7.9-6.6-12.6-6.6-8.9,2.2-12.6,6.6-5.9,10.9-6.3,19.7a218.8,218.8,0,0,0,.6,27.8c.8,9.8,1.8,19.1,3,27.7s2.5,16.4,3.7,23.1,2.1,11.5,2.5,14.1c.8,4.7-.1,8.4-2.6,11s-6.2,4-10.9,4H252.1c-4.7,0-8.3-1.3-10.8-4s-3.4-6.3-2.6-11c2.2-12.4,4.1-23.9,5.5-34.4s2.5-20.5,3.2-30,1-18.7.9-27.7-.4-18.2-1.1-27.7-1.6-19.5-3.2-30-3.3-22-5.3-34.4c-.8-4.7,0-8.4,2.6-11s6.1-4,10.8-4h46.2c4.3,0,7.6.6,10,1.8s4,3.7,5,7.2,1.5,8.5,1.3,14.7-1,14.4-2.2,24.3c-.4,2.9.2,5.1,1.7,6.6a6.7,6.7,0,0,0,5,2.3,6.7,6.7,0,0,0,4.6-1.7c1.5-1.1,2.4-3,2.8-5.6,2.6-18.2,8.1-31,16.2-38.6s19.3-11.2,33.4-11a48.5,48.5,0,0,1,18,3.1,30.5,30.5,0,0,1,13,9,34.9,34.9,0,0,1,7.1,15c1.3,6,1.2,13.2-.2,21.6-.4,3.2.1,5.7,1.4,7.3a6,6,0,0,0,4.7,2.5,7,7,0,0,0,4.5-1.7A9.9,9.9,0,0,0,427.5,446.7Z"/><path class="b4738c88-5e38-4e8f-a8db-077fd60fd127" d="M633.4,512.2a7.6,7.6,0,0,0-5.3,1.8,6.8,6.8,0,0,0-2.3,4.3,8.7,8.7,0,0,0,1,5.1,9.5,9.5,0,0,0,4.5,4.1c6.3,2.9,14.2,4.3,23.8,4.3a113,113,0,0,0,32.9-5.2,92,92,0,0,0,30.8-15.9,10.7,10.7,0,0,1,7.6-3.1,6.1,6.1,0,0,1,4.3,1.7c1.2,1.1,1.9,3,1.9,5.7v55.6a26.2,26.2,0,0,1-8.8,20.2,69.6,69.6,0,0,1-20.9,12.9,112.4,112.4,0,0,1-25.4,6.9,156.1,156.1,0,0,1-22.1,2c-16.5,0-31.4-2.7-44.6-8A96.8,96.8,0,0,1,576.6,582a101.5,101.5,0,0,1-21.8-35.5c-5.1-13.9-7.7-29.4-7.7-46.5s2.4-31.5,7.2-44.7a96.1,96.1,0,0,1,20.5-34,88.7,88.7,0,0,1,32.4-21.6c12.8-5,27-7.5,42.7-7.5q37.1,0,57.6,15.7c13.6,10.4,20.5,25,20.5,44a48.4,48.4,0,0,1-6.6,25,57.1,57.1,0,0,1-18.7,18.9c-8,5.2-17.9,9.3-29.7,12.1S648.1,512.2,633.4,512.2Zm-14.7-23.9c4.7,0,9-1.8,13-5.5A51.3,51.3,0,0,0,642,469.2a72.3,72.3,0,0,0,6.4-17.4,63,63,0,0,0,1.7-17.2c-.3-5.2-1.6-9.3-4-12.4s-6-4-10.9-3a20.2,20.2,0,0,0-11.1,6.7,51.9,51.9,0,0,0-8.6,13.2,77.8,77.8,0,0,0-5.3,16.3,62.3,62.3,0,0,0-1.6,16.1,28,28,0,0,0,2.8,12.1A7.7,7.7,0,0,0,618.7,488.3Z"/><path class="b4738c88-5e38-4e8f-a8db-077fd60fd127" d="M835.4,447.3c3.8-17.1,10.7-30.1,20.5-39s22.2-13.2,37.3-13a46.6,46.6,0,0,1,20.8,4.6,48.3,48.3,0,0,1,15.9,12.2,49.9,49.9,0,0,1,11,39.2c-1.6,12.2-2.7,23.8-3.2,34.7s-.5,22,0,33.1,1.6,22.7,3.1,34.9,3.6,25.6,6.3,40.5c.8,4.7-.1,8.4-2.6,11s-6.2,4-10.9,4H873.9c-4.7,0-8-1.3-10.1-4s-3.1-6.3-3.3-11a158.7,158.7,0,0,1,1-23.2c.9-7.4,2-14.8,3.2-22.2s2.4-15,3.6-22.7a172.3,172.3,0,0,0,1.6-24.6c.2-8.8-1.9-15.4-6.5-19.7s-9.6-6.6-14.9-6.6-10.2,2.2-14.8,6.6-6.9,10.9-6.9,19.7a176.8,176.8,0,0,0,1.7,24.8c1.1,7.7,2.3,15.3,3.5,22.6s2.3,14.8,3.4,22.2a126.2,126.2,0,0,1,.9,23.1c-.2,4.7-1.3,8.4-3.4,11s-5.4,4-10.1,4H763.2c-4.7,0-8.4-1.3-10.9-4s-3.4-6.3-2.6-11c2.2-12.4,4.1-23.9,5.5-34.4s2.5-20.5,3.2-30,1-18.7.9-27.7-.4-18.2-1-27.7-1.7-19.5-3.3-30-3.3-22-5.3-34.4c-.8-4.7,0-8.4,2.6-11s6.2-4,10.9-4h46.2c4.9,0,8.8.8,11.7,2.5s5,4.3,6.2,8.1,1.4,8.7.9,15a176.4,176.4,0,0,1-3.9,23.4c-.6,2.8-.3,4.9,1,6.2a5.3,5.3,0,0,0,4.3,2,6.2,6.2,0,0,0,3.5-1.2A6.3,6.3,0,0,0,835.4,447.3Z"/><path class="b4738c88-5e38-4e8f-a8db-077fd60fd127" d="M1037,465c-.1-.1-.1-.3-.2-.4-5.7-15.6-44.8,1.3-53,5.1a21.4,21.4,0,0,1-8.9,2.1c-7.1,0-10.7-4.5-10.7-13.5v-48q0-15,15-15h157.3q15,0,15,15v48q0,12-12.9,13.5a31.8,31.8,0,0,1-10.5-.5l-12.4-2.4-13-2.6a68.7,68.7,0,0,0-12.1-1.2,39.3,39.3,0,0,0-13.8,2.4,36.4,36.4,0,0,0-11.2,6.9,35.5,35.5,0,0,0-7.5,10.4,31.2,31.2,0,0,0-2.7,13,24.8,24.8,0,0,0,3.3,12.7,28.8,28.8,0,0,0,9.2,9.5,48.3,48.3,0,0,0,13.6,6,61.8,61.8,0,0,0,16.1,2.1,66.9,66.9,0,0,0,19.3-2.9,50.6,50.6,0,0,0,17.4-9.3c3.1-2.5,5.8-3.7,8.3-3.7,4.7,0,7,3.1,7,9.2v52c0,7.8-2.4,14-7.2,18.8s-11.6,8.5-20.6,11.2a250.6,250.6,0,0,1-29.6,6.4,186.9,186.9,0,0,1-27.3,2.2c-22.5,0-39.7-4.5-58.8-16-5.7-3.5-11.7-7.5-14.5-13.5-2-4.4-2.2-9.3-2.3-14.1-.3-10.8-.6-22,3.6-31.9,9.1-21.4,36.4-31.8,42.5-54.1a67,67,0,0,0,1.8-12.7A14.9,14.9,0,0,0,1037,465Z"/><path class="b4738c88-5e38-4e8f-a8db-077fd60fd127" d="M872.2,266.7c10.1-1.7,19.9-5.4,30.2-5.7s21,1.8,30.9,5.3,13.3,24.7,7.7,33.6-17.4,9.3-27.1,7.3-19.5-6.2-29.3-4.7c-16.1,2.4-26.5,13.2-26.2,29.1a50.9,50.9,0,0,0,2.2,13.8,57.7,57.7,0,0,0,5.3,12.3c2.3,4.1,2.7,7.6,1.1,10.6s-4.7,4.5-9.4,4.6l-64.7,1.2c-4.8.1-8.4-1.2-11-3.8s-3.6-6.3-2.8-11c2-12.5,3.6-24,4.9-34.6s2.1-20.6,2.6-30.1.7-18.8.4-27.8-.8-18.3-1.6-27.8-2-19.5-3.7-30-3.8-22-6-34.4q-1.4-6.7,2.4-10.8t10.8-4.5l37.4-1.8c11-.5,22-.8,32.8-1s21.9-.3,33-.2l37.3.4c10,.2,15.2,5.1,15.3,14.8l.9,47.2a15,15,0,0,1-3.2,10.2,10.2,10.2,0,0,1-8.2,4.1,11.2,11.2,0,0,1-5.5-1.4,122.8,122.8,0,0,0-22-7.9,79.3,79.3,0,0,0-21.5-2.6,48.7,48.7,0,0,0-13.8,2.1c-6.5,2.1-11.1,5.7-13.9,10.8-7,12.9-9.5,35.5,10.9,33.2Z"/><path class="b4738c88-5e38-4e8f-a8db-077fd60fd127" d="M1070.3,262.2c10.1-1.7,19.9-5.6,30.2-6s21,1.6,30.9,5,13.6,24.6,8.1,33.4-17.3,9.6-27.1,7.7-19.5-6-29.3-4.4c-16,2.6-26.3,13.4-25.9,29.4a49.9,49.9,0,0,0,2.4,13.7,63.3,63.3,0,0,0,5.4,12.3c2.4,4,2.8,7.5,1.3,10.5s-4.7,4.6-9.4,4.8l-64.7,1.9c-4.7.1-8.4-1.1-11-3.7s-3.7-6.2-3-11c1.9-12.5,3.4-24.1,4.5-34.6s1.9-20.7,2.4-30.2.4-18.8.1-27.8-1-18.2-1.9-27.7-2.3-19.5-4.1-30-4-21.9-6.4-34.3c-.9-4.5-.2-8.1,2.3-10.9s6.1-4.2,10.8-4.6l37.4-2.1c11-.7,21.9-1.1,32.8-1.5s21.8-.4,33-.5h37.3c10,.1,15.2,5,15.4,14.6l1.4,47.2a15.4,15.4,0,0,1-3.1,10.3,10.2,10.2,0,0,1-8.1,4.2,12.8,12.8,0,0,1-5.6-1.4,119.2,119.2,0,0,0-22-7.6,83.4,83.4,0,0,0-21.6-2.5,47.3,47.3,0,0,0-13.7,2.3c-6.5,2.2-11.1,5.9-13.8,11-6.9,12.9-9.1,35.6,11.2,33.1Z"/></svg>