<svg id="f9437166-aa3f-4b42-8bb4-870cf27d631c" data-name="Capa 1" xmlns="http://www.w3.org/2000/svg" viewBox="0 0 1348.1 766"><path d="M363.9,207.2c4.1-18.5,10.7-31.7,19.7-39.8s21.3-12,36.8-11.8a43.8,43.8,0,0,1,34.7,16.1,48.1,48.1,0,0,1,8.9,17.8,58.7,58.7,0,0,1,1.2,22.3c-1.6,12.2-2.7,23.9-3.2,34.8s-.5,22,0,33.1,1.5,22.9,3.1,35,3.6,25.8,6.3,40.7c.8,4.7-.1,8.4-2.7,11s-6.1,4-10.8,4H398c-4.7,0-8.3-1.3-10.9-4s-3.4-6.3-2.6-11c.4-2.9,1.2-7.7,2.5-14.4s2.4-14.5,3.6-23.2,2.3-17.9,3.1-27.6a218.4,218.4,0,0,0,.6-27.8c-.4-8.8-2.4-15.3-6.1-19.6s-7.9-6.5-12.6-6.5-8.3,2-12,5.8-5.9,9.9-6.7,17.8.1,14.4.4,21.5.9,14.6,1.7,22.3,1.9,15.7,3.1,24.2,2.7,17.7,4.3,27.5c.8,4.7-.1,8.4-2.6,11s-6.2,4-10.9,4H293c-4.7,0-8.3-1.3-10.9-4s-3.4-6.3-2.6-11c.4-2.9,1.3-7.7,2.5-14.4s2.5-14.5,3.7-23.2,2.2-17.9,3-27.6a202,202,0,0,0,.7-27.8c-.5-8.8-2.5-15.4-6.2-19.8s-7.9-6.6-12.6-6.6-8.9,2.2-12.7,6.6-5.9,11-6.3,19.8a220.4,220.4,0,0,0,.6,27.9c.8,9.9,1.9,19.1,3.1,27.8s2.5,16.4,3.7,23.2,2,11.4,2.4,14.1c.8,4.7,0,8.4-2.6,11s-6.2,4-10.9,4H188.1c-4.7,0-8.4-1.3-10.9-4s-3.4-6.3-2.6-11c2.2-12.5,4.1-24,5.5-34.5s2.5-20.6,3.2-30.1,1-18.8.9-27.8-.4-18.2-1-27.8-1.7-19.5-3.3-30-3.3-22.1-5.3-34.6c-.8-4.7,0-8.3,2.6-11s6.2-4,10.9-4h46.3c4.3,0,7.6.6,10,1.8s4,3.7,5.1,7.3,1.4,8.4,1.2,14.7-.9,14.4-2.2,24.4c-.4,2.9.2,5,1.7,6.6a6.9,6.9,0,0,0,9.7.6c1.4-1.1,2.3-3,2.8-5.7q3.9-27.3,16.2-38.7c8.2-7.5,19.4-11.2,33.5-11a49.1,49.1,0,0,1,18.1,3.1,30.5,30.5,0,0,1,13,9,33.7,33.7,0,0,1,7.1,15.1c1.3,6,1.3,13.2-.2,21.6-.4,3.3.1,5.7,1.4,7.4a6,6,0,0,0,4.8,2.4,6.3,6.3,0,0,0,4.4-1.7A9.3,9.3,0,0,0,363.9,207.2Z"/><path d="M599.3,318.3c-3.9,17.1-10.7,30.2-20.5,39.1s-22.3,13.2-37.5,13a45.9,45.9,0,0,1-20.7-4.6,49,49,0,0,1-15.9-12.1,44.7,44.7,0,0,1-9.7-17.8,50.3,50.3,0,0,1-1.6-21.6c1.7-12.3,2.8-23.9,3.3-34.9s.5-22,0-33.1-1.6-22.8-3.1-35-3.6-25.7-6.3-40.7c-.8-4.7.1-8.3,2.6-11s6.2-4,10.9-4h59.9c4.7,0,8,1.3,10.1,4s3.2,6.3,3.4,11a119.5,119.5,0,0,1-1,23.4q-1.5,11-3.3,22.2c-1.3,7.5-2.4,15.1-3.6,22.7a174.8,174.8,0,0,0-1.6,24.7c0,8.8,2.2,15.4,6.7,19.7s9.4,6.4,14.7,6.4,10.6-2.1,15.1-6.4,6.7-10.9,6.7-19.7a162,162,0,0,0-1.7-24.8c-1.1-7.8-2.3-15.4-3.5-22.7s-2.3-14.8-3.2-22.3a160.4,160.4,0,0,1-1.1-23.2c.2-4.7,1.3-8.3,3.4-11s5.4-4,10.1-4h59.9c4.7,0,8.3,1.3,10.9,4s3.4,6.3,2.6,11c-2.1,12.5-3.8,24-5.3,34.6s-2.5,20.5-3.2,30-1.1,18.8-1.1,27.8.4,18.3,1.1,27.8,1.8,19.5,3.2,30.1,3.2,22,5.3,34.5c.8,4.7-.1,8.4-2.6,11s-6.2,4-10.9,4H625.4c-4.9,0-8.8-.8-11.8-2.4a13,13,0,0,1-6.1-8.2c-1.2-3.7-1.5-8.8-1-15a195.8,195.8,0,0,1,3.9-23.5q.9-4.2-.9-6.3a6,6,0,0,0-4.3-2,6.1,6.1,0,0,0-5.9,5.3Z"/><path d="M364,444.5c4.1-18.3,10.6-31.5,19.6-39.6s21.2-12,36.7-11.8a45.1,45.1,0,0,1,19.6,4.3,44.5,44.5,0,0,1,15,11.8,46.2,46.2,0,0,1,8.9,17.7,58.3,58.3,0,0,1,1.2,22.2c-1.6,12.3-2.7,23.9-3.2,34.8s-.5,21.9,0,33,1.5,22.8,3.1,34.9,3.6,25.7,6.2,40.5c.8,4.7,0,8.4-2.6,11.1s-6.1,3.9-10.8,3.9H398c-4.7,0-8.3-1.3-10.9-3.9s-3.4-6.4-2.6-11.1c.4-2.8,1.3-7.6,2.5-14.3s2.4-14.5,3.7-23.1,2.2-17.9,3-27.6a216.9,216.9,0,0,0,.6-27.7c-.4-8.7-2.4-15.3-6.1-19.6s-7.9-6.4-12.5-6.4-8.3,2-12,5.8-5.9,9.8-6.7,17.8.1,14.3.5,21.4.8,14.5,1.6,22.2,1.9,15.7,3.1,24.2,2.6,17.5,4.3,27.3c.8,4.7-.1,8.4-2.6,11.1s-6.2,3.9-10.9,3.9H293.3q-7.1,0-10.8-3.9c-2.6-2.7-3.4-6.4-2.6-11.1.4-2.8,1.2-7.6,2.4-14.3s2.5-14.5,3.7-23.1,2.2-17.9,3.1-27.6a216.9,216.9,0,0,0,.6-27.7c-.4-8.7-2.5-15.3-6.1-19.7s-7.9-6.6-12.6-6.6-8.9,2.2-12.7,6.6-5.9,11-6.3,19.7a220.4,220.4,0,0,0,.6,27.9c.9,9.8,1.9,19,3.1,27.7s2.5,16.3,3.7,23.1,2,11.4,2.4,14c.8,4.7,0,8.4-2.6,11.1s-6.1,3.9-10.8,3.9H188.7c-4.7,0-8.3-1.3-10.9-3.9s-3.4-6.4-2.6-11.1c2.3-12.4,4.1-23.9,5.5-34.4s2.5-20.5,3.2-30,1.1-18.7,1-27.7-.5-18.2-1.1-27.7-1.7-19.4-3.2-29.9-3.3-22-5.4-34.5c-.8-4.7.1-8.3,2.6-11s6.2-4,10.9-4h46.2c4.3,0,7.6.6,9.9,1.9s4.1,3.6,5.1,7.2,1.4,8.4,1.2,14.6-.9,14.4-2.1,24.4c-.4,2.8.1,5,1.7,6.6a6.9,6.9,0,0,0,5,2.2,7.4,7.4,0,0,0,4.6-1.6c1.4-1.2,2.3-3,2.8-5.7,2.6-18.1,8-31,16.2-38.5s19.2-11.3,33.3-11.1a50.8,50.8,0,0,1,18.1,3.1,31.1,31.1,0,0,1,13,9,34.8,34.8,0,0,1,7,15c1.3,6,1.3,13.2-.1,21.6-.4,3.3,0,5.7,1.3,7.3a6.1,6.1,0,0,0,4.8,2.5,6.7,6.7,0,0,0,4.4-1.7A9.9,9.9,0,0,0,364,444.5Z"/><path d="M570,510a7.3,7.3,0,0,0-5.4,1.9,6.8,6.8,0,0,0-2.3,4.2,8.6,8.6,0,0,0,1.1,5.1,9.8,9.8,0,0,0,4.4,4.1c6.3,2.9,14.3,4.3,23.9,4.3a113,113,0,0,0,32.9-5.2,91.5,91.5,0,0,0,30.7-15.9,11.4,11.4,0,0,1,7.7-3.1,6.5,6.5,0,0,1,4.3,1.7q1.8,1.6,1.8,5.7v55.7a26.3,26.3,0,0,1-8.7,20.2,66.8,66.8,0,0,1-21,12.8,109.7,109.7,0,0,1-25.4,6.9,154.9,154.9,0,0,1-22,2c-16.5,0-31.4-2.7-44.7-8a97.3,97.3,0,0,1-34.1-22.6,99.4,99.4,0,0,1-21.9-35.5c-5.1-13.9-7.6-29.4-7.6-46.5s2.4-31.4,7.2-44.7a97,97,0,0,1,20.5-34,88.9,88.9,0,0,1,32.4-21.5c12.7-5,27-7.5,42.7-7.5,24.7,0,43.8,5.2,57.5,15.6s20.5,25.1,20.5,44a48.4,48.4,0,0,1-6.6,25,57.1,57.1,0,0,1-18.6,19q-12.1,7.8-29.7,12C597.9,508.6,584.7,510,570,510Zm-14.7-23.8c4.7,0,9-1.9,13-5.5A49.5,49.5,0,0,0,578.5,467a72.6,72.6,0,0,0,6.5-17.4,61.6,61.6,0,0,0,1.6-17.1c-.3-5.2-1.6-9.4-3.9-12.4s-6-4.1-10.9-3.1-7.8,3.1-11.2,6.7a51.6,51.6,0,0,0-8.5,13.2,71.7,71.7,0,0,0-5.4,16.4,65.8,65.8,0,0,0-1.5,16,29.2,29.2,0,0,0,2.7,12.1C549.6,484.6,552,486.2,555.3,486.2Z"/><path d="M771.9,445.2c3.9-17.2,10.7-30.2,20.5-39.1s22.3-13.2,37.4-13A47.4,47.4,0,0,1,866.5,410a49.5,49.5,0,0,1,11,39.1c-1.6,12.3-2.7,23.9-3.2,34.8s-.5,21.9,0,33,1.5,22.8,3,34.9,3.7,25.7,6.3,40.5c.8,4.7,0,8.4-2.6,11.1s-6.2,3.9-10.9,3.9H810.5c-4.7,0-8.1-1.3-10.1-3.9s-3.2-6.4-3.4-11.1a158.3,158.3,0,0,1,1.1-23.2c.9-7.4,2-14.8,3.2-22.2s2.4-15,3.5-22.6a174.3,174.3,0,0,0,1.7-24.7c.2-8.7-2-15.3-6.6-19.7s-9.5-6.6-14.8-6.6-10.3,2.2-14.9,6.6-6.8,11-6.8,19.7a176.2,176.2,0,0,0,1.6,24.8c1.2,7.8,2.3,15.3,3.6,22.7s2.3,14.7,3.3,22.1a126.2,126.2,0,0,1,.9,23.1q-.3,7.1-3.3,11.1c-2.1,2.6-5.4,3.9-10.1,3.9H699.7c-4.7,0-8.3-1.3-10.9-3.9s-3.4-6.4-2.6-11.1c2.3-12.4,4.1-23.9,5.6-34.4s2.4-20.5,3.2-30,1-18.7.9-27.7-.5-18.2-1.1-27.7-1.7-19.4-3.2-29.9-3.3-22-5.4-34.5c-.8-4.7.1-8.3,2.6-11s6.2-4,10.9-4h46.2a24.9,24.9,0,0,1,11.8,2.5,12.9,12.9,0,0,1,6.1,8.1q1.7,5.7.9,15a191.5,191.5,0,0,1-3.8,23.4c-.6,2.9-.3,4.9.9,6.3a5.8,5.8,0,0,0,4.3,2,6.1,6.1,0,0,0,3.5-1.3A6.3,6.3,0,0,0,771.9,445.2Z"/><path d="M973.5,462.9c0-.2-.1-.3-.1-.5-5.7-15.5-44.8,1.3-53.1,5.1a21,21,0,0,1-8.8,2.1c-7.2,0-10.8-4.5-10.8-13.4V408.1q0-15,15-15H1073q15,0,15,15v48.1c0,7.9-4.3,12.4-12.8,13.4a35.3,35.3,0,0,1-10.6-.4c-4-.7-8.1-1.6-12.4-2.5l-13-2.6a67.8,67.8,0,0,0-12.1-1.2,38.3,38.3,0,0,0-13.7,2.4,35.2,35.2,0,0,0-11.2,6.9,33.3,33.3,0,0,0-7.5,10.4,31.6,31.6,0,0,0-2.8,13,24.6,24.6,0,0,0,3.4,12.7,27.8,27.8,0,0,0,9.2,9.5,45.6,45.6,0,0,0,13.6,6,61.8,61.8,0,0,0,16.1,2.1,63,63,0,0,0,19.2-2.9,50.2,50.2,0,0,0,17.5-9.3c3-2.4,5.8-3.7,8.2-3.7,4.7,0,7.1,3.1,7.1,9.2v52c0,7.8-2.4,14.1-7.2,18.8s-11.7,8.6-20.7,11.2a230.6,230.6,0,0,1-29.5,6.4,175.2,175.2,0,0,1-27.4,2.2c-22.5,0-39.6-4.5-58.8-16-5.7-3.5-11.6-7.4-14.4-13.5-2-4.4-2.2-9.3-2.3-14.1-.4-10.8-.6-21.9,3.6-31.9,9-21.3,36.3-31.7,42.5-54.1a67,67,0,0,0,1.7-12.6A10.6,10.6,0,0,0,973.5,462.9Z"/><path d="M808.8,264.5c10.1-1.6,19.8-5.4,30.1-5.7s21,1.8,30.9,5.3,13.4,24.8,7.7,33.6-17.3,9.3-27.1,7.3-19.4-6.1-29.3-4.7c-16,2.4-26.5,13.2-26.2,29.1a51.1,51.1,0,0,0,2.3,13.8,57.7,57.7,0,0,0,5.3,12.3c2.3,4.1,2.7,7.6,1.1,10.6s-4.7,4.5-9.4,4.6l-64.8,1.2c-4.7.1-8.4-1.1-11-3.8s-3.5-6.2-2.8-11c2-12.5,3.7-24,4.9-34.6s2.1-20.6,2.7-30.1.7-18.8.4-27.8-.8-18.3-1.6-27.8-2-19.5-3.8-30-3.7-21.9-6-34.4q-1.4-6.7,2.4-10.8t10.8-4.5l37.5-1.7c11-.5,21.9-.9,32.8-1.1s21.8-.3,33-.2l37.3.4c10,.3,15.1,5.2,15.3,14.8l.9,47.2c0,4.1-1,7.5-3.2,10.2a10.7,10.7,0,0,1-8.2,4.2,13.1,13.1,0,0,1-5.6-1.5,118.8,118.8,0,0,0-21.9-7.8,84,84,0,0,0-21.6-2.7A47.5,47.5,0,0,0,808,221c-6.5,2.2-11.2,5.8-14,10.8-7,12.9-9.4,35.6,10.9,33.2Z"/><path d="M1006.9,260c10.1-1.7,19.8-5.5,30.1-6s21,1.6,31,5,13.6,24.6,8,33.5-17.2,9.5-27,7.6-19.5-6-29.4-4.4c-16,2.6-26.3,13.5-25.8,29.4a46.4,46.4,0,0,0,2.4,13.7,53.2,53.2,0,0,0,5.4,12.3c2.4,4,2.8,7.6,1.2,10.6s-4.6,4.6-9.3,4.7l-64.8,1.9c-4.7.1-8.4-1.1-11-3.7s-3.6-6.2-2.9-10.9c1.9-12.6,3.4-24.1,4.5-34.7s1.9-20.6,2.3-30.2.5-18.8.1-27.8-1-18.2-1.9-27.7-2.2-19.5-4.1-30-3.9-21.9-6.3-34.3c-1-4.5-.2-8.1,2.3-10.8s6-4.3,10.7-4.6l37.4-2.2c11.1-.6,22-1.1,32.8-1.4s21.9-.5,33-.5h37.3c10.1.2,15.2,5,15.5,14.6l1.4,47.3a15,15,0,0,1-3.1,10.2,10.6,10.6,0,0,1-8.2,4.2,12.2,12.2,0,0,1-5.5-1.3,113.4,113.4,0,0,0-22.1-7.7,82.9,82.9,0,0,0-21.5-2.4,48.7,48.7,0,0,0-13.8,2.2c-6.5,2.3-11.1,5.9-13.8,11-6.9,12.9-9,35.6,11.3,33.1Z"/></svg>