<svg id="b8095191-4e89-4baa-bf09-3549c12c635e" data-name="Capa 1" xmlns="http://www.w3.org/2000/svg" xmlns:xlink="http://www.w3.org/1999/xlink" viewBox="0 0 1224.7 976.3"><defs><style>.a09647d1-4592-4385-8552-ee4fcdea956c,.a0c978ca-dca2-4313-8da5-3bba74a6c848,.a1dc4f52-cdcb-40e9-b790-77afc2bb312c,.a690e682-adc7-442e-87e1-f06fb6ae9df5,.a9e59f87-f78d-4e0a-972c-a00fd8a31d8c,.aa8b1230-5ecf-43c7-ae55-6c18f98d6001,.aac69d92-2765-426c-89a3-c09cd9fc33fd,.abc51914-8e48-42cf-84d0-798c89db0bfe,.afee4ce1-334c-43d5-9e17-2c66f9932e50,.b7506e41-408a-4b85-80b7-0d86f9d28b74,.baadc96b-992c-4e58-8a0b-b08051b5697c,.bd3ed66d-e372-44ff-b827-9eefaf5fa2fe,.bde1193c-34df-4d2c-8f20-27daaa61c398,.e0e8c2b0-47d9-41eb-9b0f-6e0b0a30249d,.f4fc0cf6-5458-471b-bc0f-d071454f6bb5,.ff387a60-a9bf-4b45-95fc-258cd4d74480{fill:none;}.a05903f7-5783-4f54-9960-62910118af9e,.fb3cf1a7-68c7-4fec-8e81-157b7ea87034{fill:#e8e2d1;}.a09647d1-4592-4385-8552-ee4fcdea956c,.a0c978ca-dca2-4313-8da5-3bba74a6c848,.a1dc4f52-cdcb-40e9-b790-77afc2bb312c,.a9e59f87-f78d-4e0a-972c-a00fd8a31d8c,.aa8b1230-5ecf-43c7-ae55-6c18f98d6001,.aac69d92-2765-426c-89a3-c09cd9fc33fd,.abc51914-8e48-42cf-84d0-798c89db0bfe,.afee4ce1-334c-43d5-9e17-2c66f9932e50,.b7506e41-408a-4b85-80b7-0d86f9d28b74,.baadc96b-992c-4e58-8a0b-b08051b5697c,.bd3ed66d-e372-44ff-b827-9eefaf5fa2fe,.bde1193c-34df-4d2c-8f20-27daaa61c398,.e0e8c2b0-47d9-41eb-9b0f-6e0b0a30249d,.f4fc0cf6-5458-471b-bc0f-d071454f6bb5,.fb3cf1a7-68c7-4fec-8e81-157b7ea87034,.ff387a60-a9bf-4b45-95fc-258cd4d74480{stroke:#e8e2d1;}.afee4ce1-334c-43d5-9e17-2c66f9932e50,.fb3cf1a7-68c7-4fec-8e81-157b7ea87034,.ff387a60-a9bf-4b45-95fc-258cd4d74480{stroke-miterlimit:10;}.a72e1b4b-7354-4b7b-8af9-4232a6513c1b{clip-path:url(#e8e2d15f-cff3-4cf2-b063-b672b4ee622b);}.ff387a60-a9bf-4b45-95fc-258cd4d74480{stroke-width:15px;}.e30affe5-06c9-4f0e-8edc-7601881d78ec{fill:#fff;}.a09647d1-4592-4385-8552-ee4fcdea956c,.a0c978ca-dca2-4313-8da5-3bba74a6c848,.a1dc4f52-cdcb-40e9-b790-77afc2bb312c,.a9e59f87-f78d-4e0a-972c-a00fd8a31d8c,.aa8b1230-5ecf-43c7-ae55-6c18f98d6001,.aac69d92-2765-426c-89a3-c09cd9fc33fd,.abc51914-8e48-42cf-84d0-798c89db0bfe,.afee4ce1-334c-43d5-9e17-2c66f9932e50,.b7506e41-408a-4b85-80b7-0d86f9d28b74,.baadc96b-992c-4e58-8a0b-b08051b5697c,.bd3ed66d-e372-44ff-b827-9eefaf5fa2fe,.bde1193c-34df-4d2c-8f20-27daaa61c398,.e0e8c2b0-47d9-41eb-9b0f-6e0b0a30249d,.f4fc0cf6-5458-471b-bc0f-d071454f6bb5{stroke-linecap:round;}.afee4ce1-334c-43d5-9e17-2c66f9932e50{stroke-width:27px;}.a09647d1-4592-4385-8552-ee4fcdea956c,.a0c978ca-dca2-4313-8da5-3bba74a6c848,.a1dc4f52-cdcb-40e9-b790-77afc2bb312c,.a9e59f87-f78d-4e0a-972c-a00fd8a31d8c,.aa8b1230-5ecf-43c7-ae55-6c18f98d6001,.aac69d92-2765-426c-89a3-c09cd9fc33fd,.abc51914-8e48-42cf-84d0-798c89db0bfe,.b7506e41-408a-4b85-80b7-0d86f9d28b74,.baadc96b-992c-4e58-8a0b-b08051b5697c,.bd3ed66d-e372-44ff-b827-9eefaf5fa2fe,.bde1193c-34df-4d2c-8f20-27daaa61c398,.e0e8c2b0-47d9-41eb-9b0f-6e0b0a30249d,.f4fc0cf6-5458-471b-bc0f-d071454f6bb5{stroke-linejoin:round;}.a09647d1-4592-4385-8552-ee4fcdea956c,.a0c978ca-dca2-4313-8da5-3bba74a6c848,.a9e59f87-f78d-4e0a-972c-a00fd8a31d8c,.abc51914-8e48-42cf-84d0-798c89db0bfe{stroke-width:7px;}.abc51914-8e48-42cf-84d0-798c89db0bfe{stroke-dasharray:0 14.07;}.a9e59f87-f78d-4e0a-972c-a00fd8a31d8c{stroke-dasharray:0 12.92;}.a09647d1-4592-4385-8552-ee4fcdea956c{stroke-dasharray:0 12.71;}.a1dc4f52-cdcb-40e9-b790-77afc2bb312c,.aa8b1230-5ecf-43c7-ae55-6c18f98d6001,.aac69d92-2765-426c-89a3-c09cd9fc33fd,.b7506e41-408a-4b85-80b7-0d86f9d28b74,.baadc96b-992c-4e58-8a0b-b08051b5697c,.bd3ed66d-e372-44ff-b827-9eefaf5fa2fe,.bde1193c-34df-4d2c-8f20-27daaa61c398,.e0e8c2b0-47d9-41eb-9b0f-6e0b0a30249d,.f4fc0cf6-5458-471b-bc0f-d071454f6bb5{stroke-width:5px;}.a1dc4f52-cdcb-40e9-b790-77afc2bb312c{stroke-dasharray:0 14.6;}.baadc96b-992c-4e58-8a0b-b08051b5697c{stroke-dasharray:0 12.74;}.f4fc0cf6-5458-471b-bc0f-d071454f6bb5{stroke-dasharray:0 12.71;}.aac69d92-2765-426c-89a3-c09cd9fc33fd{stroke-dasharray:0 13.58;}.aa8b1230-5ecf-43c7-ae55-6c18f98d6001{stroke-dasharray:0 11.66;}.b7506e41-408a-4b85-80b7-0d86f9d28b74{stroke-dasharray:0 15.17;}.bd3ed66d-e372-44ff-b827-9eefaf5fa2fe{stroke-dasharray:0 13.05;}.bde1193c-34df-4d2c-8f20-27daaa61c398{stroke-dasharray:0 10.54;}</style><clipPath id="f58fe45f-cff3-4cf2-b063-b672b4ee622b"><rect class="a690e682-adc7-442e-87e1-f06fb6ae9df5" x="229" y="31.2" width="884.4" height="361.34"/></clipPath></defs><path class="fb3cf1a7-68c7-4fec-8e81-157b7ea87034" d="M306,435.1q6.3-28.4,20.2-40.8c9.2-8.3,21.8-12.4,37.8-12.2a46.7,46.7,0,0,1,20.2,4.4,44.8,44.8,0,0,1,15.4,12.2,46.3,46.3,0,0,1,9.1,18.3,57.3,57.3,0,0,1,1.3,22.8c-1.7,12.6-2.8,24.5-3.3,35.8s-.5,22.6,0,34,1.6,23.4,3.1,35.9,3.8,26.5,6.5,41.8c.8,4.8,0,8.6-2.7,11.3s-6.3,4.1-11.2,4.1H341c-4.8,0-8.6-1.3-11.2-4.1s-3.5-6.5-2.7-11.3c.4-2.9,1.3-7.9,2.5-14.8s2.6-14.9,3.8-23.8,2.3-18.4,3.2-28.4a229.9,229.9,0,0,0,.6-28.5c-.4-9-2.5-15.8-6.3-20.2S322.8,465,318,465s-8.5,2-12.3,6-6.1,10.1-6.9,18.3.1,14.7.4,22,.9,15,1.8,22.9,1.9,16.2,3.1,24.9,2.7,18.1,4.4,28.2c.9,4.8,0,8.6-2.7,11.3s-6.3,4.1-11.1,4.1H233.2c-4.8,0-8.6-1.3-11.2-4.1s-3.5-6.5-2.7-11.3c.5-2.9,1.3-7.9,2.6-14.8s2.5-14.9,3.7-23.8,2.4-18.4,3.2-28.4a229.9,229.9,0,0,0,.6-28.5c-.4-9-2.5-15.8-6.3-20.3s-8.1-6.8-12.9-6.8-9.2,2.3-13.1,6.8-6,11.3-6.4,20.3a215.2,215.2,0,0,0,.6,28.7c.8,10.1,1.9,19.6,3.1,28.5s2.6,16.9,3.8,23.8,2.1,11.8,2.5,14.5c.9,4.8,0,8.6-2.6,11.3s-6.4,4.1-11.2,4.1H125.4c-4.8,0-8.5-1.3-11.2-4.1s-3.5-6.5-2.6-11.3c2.3-12.8,4.2-24.6,5.6-35.5s2.6-21.1,3.3-30.8,1.1-19.3,1-28.6-.5-18.7-1.1-28.5-1.7-20-3.3-30.9-3.4-22.6-5.5-35.4c-.9-4.9,0-8.6,2.6-11.4s6.4-4.1,11.2-4.1H173a23.9,23.9,0,0,1,10.3,1.9c2.4,1.3,4.1,3.8,5.2,7.4s1.4,8.8,1.2,15.2-.9,14.7-2.2,25c-.4,3,.2,5.2,1.7,6.8a7.4,7.4,0,0,0,5.2,2.4,7.6,7.6,0,0,0,4.8-1.8c1.4-1.1,2.4-3.1,2.8-5.8,2.7-18.7,8.3-31.9,16.7-39.7s19.9-11.6,34.4-11.4a51.8,51.8,0,0,1,18.6,3.2,32,32,0,0,1,13.3,9.3,35.1,35.1,0,0,1,7.3,15.4c1.4,6.2,1.3,13.6-.2,22.2-.4,3.4.1,5.9,1.5,7.6a5.9,5.9,0,0,0,4.8,2.5,6.7,6.7,0,0,0,4.6-1.7A10,10,0,0,0,306,435.1Z"/><path class="fb3cf1a7-68c7-4fec-8e81-157b7ea87034" d="M547.7,549.2q-6,26.4-21.1,40.1c-10.1,9.2-22.9,13.6-38.4,13.4a46.9,46.9,0,0,1-21.3-4.7,51.9,51.9,0,0,1-16.4-12.4,49.2,49.2,0,0,1-9.9-18.3,51.6,51.6,0,0,1-1.6-22.2c1.7-12.6,2.8-24.6,3.3-35.8s.5-22.6,0-34-1.6-23.5-3.1-36-3.8-26.4-6.5-41.7c-.8-4.9,0-8.6,2.7-11.4s6.3-4.1,11.2-4.1H508c4.8,0,8.3,1.4,10.4,4.1s3.3,6.5,3.5,11.4a124.4,124.4,0,0,1-1,23.9c-1,7.6-2.2,15.2-3.4,22.9s-2.5,15.4-3.7,23.3a183.4,183.4,0,0,0-1.7,25.4q0,13.5,6.9,20.1c4.7,4.4,9.7,6.7,15.2,6.7s10.8-2.3,15.4-6.7,6.9-11.1,6.9-20.1a172.8,172.8,0,0,0-1.7-25.6c-1.1-7.9-2.4-15.7-3.6-23.3s-2.4-15.2-3.3-22.8a155.1,155.1,0,0,1-1.1-23.8c.2-4.9,1.3-8.6,3.4-11.4s5.6-4.1,10.4-4.1h61.5c4.8,0,8.6,1.4,11.2,4.1s3.5,6.5,2.7,11.4q-3.2,19.2-5.4,35.4c-1.5,10.9-2.6,21.1-3.3,30.9s-1.1,19.3-1.1,28.5.4,18.8,1.1,28.6,1.8,20,3.3,30.8,3.3,22.7,5.4,35.5c.8,4.8-.1,8.6-2.7,11.3s-6.4,4.1-11.2,4.1H574.5c-5,0-9.1-.8-12.1-2.5a12.9,12.9,0,0,1-6.3-8.3c-1.2-3.9-1.5-9.1-1-15.5a209.5,209.5,0,0,1,4-24.1c.6-2.9.3-5.1-1-6.4a5.6,5.6,0,0,0-4.4-2.1,5.5,5.5,0,0,0-3.6,1.3A6.2,6.2,0,0,0,547.7,549.2Z"/><path class="fb3cf1a7-68c7-4fec-8e81-157b7ea87034" d="M306.1,678.8q6.3-28.2,20.1-40.7c9.2-8.2,21.8-12.3,37.7-12.1a45,45,0,0,1,35.5,16.5,47.7,47.7,0,0,1,9.1,18.3,58.8,58.8,0,0,1,1.3,22.7q-2.6,18.9-3.3,35.7c-.5,11.2-.5,22.5,0,34s1.6,23.3,3.1,35.8,3.8,26.3,6.5,41.6c.8,4.8-.1,8.6-2.7,11.3s-6.3,4.1-11.1,4.1H341c-4.8,0-8.6-1.4-11.2-4.1s-3.5-6.5-2.6-11.3c.4-2.9,1.2-7.8,2.5-14.8s2.5-14.8,3.7-23.7,2.3-18.3,3.2-28.3a227.9,227.9,0,0,0,.6-28.4q-.6-13.5-6.3-20.1T318,708.7c-4.4,0-8.4,2-12.2,6s-6.1,10-6.9,18.2.1,14.6.4,22,.9,14.9,1.8,22.8,1.9,16.1,3.1,24.8,2.7,18.1,4.4,28.1c.9,4.8,0,8.6-2.7,11.3s-6.3,4.1-11.1,4.1H233.5c-4.8,0-8.5-1.4-11.1-4.1s-3.5-6.5-2.7-11.3c.4-2.9,1.2-7.8,2.5-14.8s2.5-14.8,3.8-23.7,2.3-18.3,3.1-28.3a195,195,0,0,0,.6-28.4c-.4-9-2.5-15.8-6.2-20.3s-8.1-6.7-12.9-6.7-9.2,2.2-13.1,6.7-6,11.3-6.4,20.3a231.8,231.8,0,0,0,.6,28.6c.9,10,1.9,19.5,3.2,28.4s2.5,16.8,3.7,23.8,2.1,11.7,2.6,14.4c.8,4.8-.1,8.6-2.7,11.3s-6.4,4.1-11.2,4.1H126.1c-4.9,0-8.6-1.4-11.2-4.1s-3.5-6.5-2.7-11.3c2.3-12.8,4.2-24.6,5.7-35.3s2.5-21.1,3.3-30.8,1-19.3.9-28.5-.4-18.7-1.1-28.4-1.7-20-3.3-30.8-3.4-22.6-5.5-35.4c-.8-4.8.1-8.5,2.7-11.3s6.3-4.1,11.2-4.1h47.4c4.4,0,7.8.7,10.2,1.9s4.1,3.8,5.2,7.4a53,53,0,0,1,1.3,15.1c-.3,6.4-1,14.7-2.2,25-.5,2.9.1,5.2,1.7,6.7a7.2,7.2,0,0,0,5.2,2.4,8,8,0,0,0,4.7-1.7,9.1,9.1,0,0,0,2.8-5.8c2.7-18.7,8.3-31.9,16.7-39.6s19.8-11.6,34.2-11.4a51.8,51.8,0,0,1,18.6,3.2,32.7,32.7,0,0,1,13.3,9.3,33.4,33.4,0,0,1,7.2,15.4c1.4,6.1,1.3,13.5-.1,22.1-.4,3.4,0,5.9,1.4,7.5a6.1,6.1,0,0,0,4.9,2.6,6.6,6.6,0,0,0,4.5-1.8A9.4,9.4,0,0,0,306.1,678.8Z"/><path class="fb3cf1a7-68c7-4fec-8e81-157b7ea87034" d="M517.6,746.1a7.5,7.5,0,0,0-5.5,1.9,6.7,6.7,0,0,0-2.4,4.4,9.3,9.3,0,0,0,1.1,5.2,11.1,11.1,0,0,0,4.6,4.2c6.5,2.9,14.6,4.4,24.5,4.4a116.5,116.5,0,0,0,33.8-5.4,92.6,92.6,0,0,0,31.5-16.3,11.4,11.4,0,0,1,7.9-3.1,6.1,6.1,0,0,1,4.4,1.7c1.2,1.1,1.9,3.1,1.9,5.8v57.2a26.6,26.6,0,0,1-9,20.7A67.2,67.2,0,0,1,588.9,840a117.2,117.2,0,0,1-26.1,7.1,149.4,149.4,0,0,1-22.6,2q-25.5,0-45.9-8.1a99.5,99.5,0,0,1-35-23.3,100.8,100.8,0,0,1-22.5-36.4c-5.2-14.3-7.8-30.2-7.8-47.8s2.4-32.2,7.3-45.9a99.9,99.9,0,0,1,21.1-34.8,89.4,89.4,0,0,1,33.3-22.2c13.1-5.1,27.7-7.7,43.8-7.7q38.1,0,59.1,16c14,10.7,21.1,25.8,21.1,45.3a49.8,49.8,0,0,1-6.8,25.6,59.5,59.5,0,0,1-19.2,19.5c-8.2,5.3-18.4,9.4-30.4,12.4A174.4,174.4,0,0,1,517.6,746.1Zm-15.1-24.5a19,19,0,0,0,13.3-5.7,52.7,52.7,0,0,0,10.6-14A75,75,0,0,0,533,684a65.4,65.4,0,0,0,1.7-17.6c-.3-5.3-1.7-9.6-4.1-12.7s-6.1-4.2-11.1-3.1a20.6,20.6,0,0,0-11.5,6.9,48.5,48.5,0,0,0-8.8,13.5,75.2,75.2,0,0,0-5.5,16.8,65.7,65.7,0,0,0-1.6,16.5,30.7,30.7,0,0,0,2.8,12.4C496.6,720,499.1,721.6,502.5,721.6Z"/><path class="fb3cf1a7-68c7-4fec-8e81-157b7ea87034" d="M725,679.5q5.8-26.4,21-40.1c10.1-9.1,22.8-13.6,38.3-13.4a47.7,47.7,0,0,1,21.4,4.8A48.3,48.3,0,0,1,822,643.3a51.4,51.4,0,0,1,11.4,40.2q-2.5,18.9-3.3,35.7a321.3,321.3,0,0,0,0,34c.5,11.4,1.5,23.3,3.1,35.8s3.7,26.3,6.4,41.6c.9,4.8,0,8.6-2.6,11.3s-6.4,4.1-11.2,4.1H764.5c-4.8,0-8.2-1.4-10.3-4.1s-3.3-6.5-3.5-11.3a168.1,168.1,0,0,1,1.1-23.9q1.5-11.2,3.3-22.8c1.3-7.6,2.5-15.4,3.6-23.2a168.3,168.3,0,0,0,1.8-25.3c.2-9-2.1-15.8-6.8-20.3s-9.8-6.7-15.2-6.7-10.6,2.2-15.3,6.7-7,11.3-7,20.3a170.1,170.1,0,0,0,1.7,25.4c1.1,8,2.3,15.8,3.6,23.3s2.4,15.1,3.5,22.8a132.1,132.1,0,0,1,.9,23.7c-.2,4.8-1.4,8.6-3.5,11.3s-5.5,4.1-10.3,4.1H650.8c-4.8,0-8.5-1.4-11.2-4.1s-3.5-6.5-2.6-11.3c2.3-12.8,4.2-24.6,5.6-35.3s2.6-21.1,3.3-30.8,1.1-19.3,1-28.5-.5-18.7-1.1-28.4-1.8-20-3.3-30.8-3.4-22.6-5.5-35.4c-.9-4.8,0-8.5,2.6-11.3s6.4-4.1,11.2-4.1h47.4c5.1,0,9.1.9,12.1,2.6s5.2,4.4,6.3,8.3,1.5,9,1,15.4a204.9,204.9,0,0,1-4,24c-.6,3-.3,5.1,1,6.5a5.7,5.7,0,0,0,8,.7A6.9,6.9,0,0,0,725,679.5Z"/><path class="fb3cf1a7-68c7-4fec-8e81-157b7ea87034" d="M932,697.7l-.2-.5c-5.8-16-46,1.3-54.5,5.2a20.6,20.6,0,0,1-9.1,2.2c-7.3,0-11-4.6-11-13.8V641.4c0-10.2,5.2-15.4,15.4-15.4h161.5c10.3,0,15.4,5.2,15.4,15.4v49.4c0,8.1-4.4,12.8-13.2,13.8a33.8,33.8,0,0,1-10.8-.5c-4.1-.7-8.3-1.5-12.7-2.5l-13.4-2.7a71,71,0,0,0-12.4-1.2,38.8,38.8,0,0,0-14.1,2.5,33.8,33.8,0,0,0-11.5,7.1,32.9,32.9,0,0,0-7.7,10.7,30.8,30.8,0,0,0-2.8,13.3,25.4,25.4,0,0,0,3.4,13.1,30.3,30.3,0,0,0,9.5,9.7,46.5,46.5,0,0,0,13.9,6.1,61.3,61.3,0,0,0,16.5,2.2,67,67,0,0,0,19.8-3,52.4,52.4,0,0,0,17.9-9.5c3.2-2.6,6-3.8,8.5-3.8,4.8,0,7.3,3.1,7.3,9.4v53.4c0,8-2.5,14.4-7.4,19.3s-12,8.8-21.2,11.5a228.1,228.1,0,0,1-30.4,6.6,184,184,0,0,1-28.1,2.2c-23.1,0-40.7-4.6-60.3-16.4-5.9-3.6-12-7.6-14.9-13.9-2.1-4.4-2.2-9.5-2.4-14.5-.3-11-.6-22.5,3.7-32.7,9.3-21.9,37.4-32.6,43.7-55.6a70.3,70.3,0,0,0,1.8-12.9A15.4,15.4,0,0,0,932,697.7Z"/><path class="fb3cf1a7-68c7-4fec-8e81-157b7ea87034" d="M762.8,494c10.4-1.7,20.4-5.5,31-5.9s21.5,1.9,31.7,5.5,13.7,25.4,7.9,34.4-17.8,9.6-27.8,7.6-20-6.4-30.1-4.8c-16.5,2.4-27.2,13.5-26.9,29.8a49.6,49.6,0,0,0,2.3,14.2,55.6,55.6,0,0,0,5.4,12.6c2.4,4.2,2.8,7.8,1.2,10.9s-4.9,4.6-9.7,4.7l-66.5,1.3c-4.8.1-8.6-1.2-11.3-3.9s-3.6-6.5-2.9-11.3c2.1-12.9,3.8-24.7,5.1-35.6s2.1-21.1,2.7-30.9.7-19.3.4-28.5-.8-18.8-1.6-28.5-2.1-20.1-3.9-30.9-3.8-22.5-6.2-35.3c-.9-4.6-.1-8.3,2.5-11.1s6.3-4.3,11.1-4.6l38.4-1.8c11.4-.5,22.6-.9,33.7-1.1s22.5-.3,33.9-.2l38.3.4c10.3.3,15.6,5.3,15.8,15.2l.9,48.5a16.5,16.5,0,0,1-3.3,10.5,10.6,10.6,0,0,1-8.5,4.2,12.4,12.4,0,0,1-5.7-1.4,111.9,111.9,0,0,0-22.5-8.1,84.2,84.2,0,0,0-22.1-2.8,46.3,46.3,0,0,0-14.1,2.2c-6.7,2.2-11.5,5.9-14.3,11.1-7.3,13.2-9.7,36.5,11.2,34.1Z"/><path class="fb3cf1a7-68c7-4fec-8e81-157b7ea87034" d="M966.2,489.4c10.4-1.8,20.4-5.8,31-6.2s21.6,1.6,31.7,5.1,14,25.3,8.3,34.4-17.7,9.8-27.7,7.8-20.1-6.1-30.2-4.5c-16.4,2.6-27,13.8-26.5,30.2a49.7,49.7,0,0,0,2.4,14.1,60.7,60.7,0,0,0,5.6,12.6c2.4,4.1,2.8,7.8,1.3,10.8s-4.8,4.8-9.7,4.9L886,600.5c-4.9.2-8.6-1.1-11.3-3.7s-3.8-6.4-3.1-11.3c2-12.9,3.5-24.7,4.7-35.6s1.9-21.2,2.4-31,.5-19.3.1-28.5-1-18.7-1.9-28.5-2.4-20-4.3-30.7-4-22.6-6.5-35.3c-1-4.6-.2-8.3,2.3-11.1s6.3-4.4,11.1-4.8l38.4-2.2,33.7-1.5c11.1-.3,22.4-.5,33.9-.5h38.3q15.5.1,15.9,15l1.4,48.5a15.9,15.9,0,0,1-3.2,10.5,10.6,10.6,0,0,1-8.4,4.3,12.2,12.2,0,0,1-5.7-1.4,125.7,125.7,0,0,0-22.6-7.8,83.3,83.3,0,0,0-22.1-2.5,47.4,47.4,0,0,0-14.2,2.3c-6.6,2.3-11.3,6.1-14.1,11.3-7.1,13.3-9.3,36.6,11.5,33.9Z"/><g class="a72e1b4b-7354-4b7b-8af9-4232a6513c1b"><path class="fb3cf1a7-68c7-4fec-8e81-157b7ea87034" d="M883.8,165.4c-1.2-4.1-1.3-8.3-4.4-11.2s-7.1-3-11.2-3.9l5.2-1.2c5.5-.9,8.4-4.4,9.4-9.7.2-1.3.5-2.5.9-4.2l1.9,7c1.1,4.2,4.3,5.9,8.2,6.9l5.3,1.1-6.8,1.8c-4.2,1-6.2,3.9-7.2,7.8Z"/><path class="ff387a60-a9bf-4b45-95fc-258cd4d74480" d="M371,507.8c-.4-5.3-.7-10.7-.8-16.1a336.2,336.2,0,0,1,99.4-248.2l3.7-4.1"/><path class="ff387a60-a9bf-4b45-95fc-258cd4d74480" d="M716,819.4c-165.9,4.5-307.1-111.8-339.1-269.1"/><path class="ff387a60-a9bf-4b45-95fc-258cd4d74480" d="M716.1,145.7c20.3,1.9,40.7,3.1,60.7,7.3a335.9,335.9,0,0,1,98.1,37.5,341.2,341.2,0,0,1,80.7,64.8,335.7,335.7,0,0,1,88.1,218.2c3.7,138-76.1,258.9-193.5,314.1l-21.4,10.3"/><path class="ff387a60-a9bf-4b45-95fc-258cd4d74480" d="M343.6,513.9c-.6-7.1-1-14.2-1.2-21.4a336.1,336.1,0,0,1,115-262.7s6.7-6.2,14.1-12.4"/><path class="ff387a60-a9bf-4b45-95fc-258cd4d74480" d="M696.4,819.8c-2.7.2-5.4.3-8.2.3C522.8,824.6,382,709,349.4,552.5"/><circle class="ff387a60-a9bf-4b45-95fc-258cd4d74480" cx="543" cy="228.4" r="72.3"/><path class="ff387a60-a9bf-4b45-95fc-258cd4d74480" d="M590.8,174.1a72.4,72.4,0,1,1,23.6,71.3"/><path class="ff387a60-a9bf-4b45-95fc-258cd4d74480" d="M607.5,198.8c15.4-13,31.9-25.9,52.4-29.1s38.9-2.1,58,.7c4.2.6,8.4,1.3,12.6,2.2"/><path class="ff387a60-a9bf-4b45-95fc-258cd4d74480" d="M484.7,277.2c2.3-25.5,24.8-46.8,46.6-57.3,24-11.5,51.9-14.5,78.3-14.3"/><circle class="fb3cf1a7-68c7-4fec-8e81-157b7ea87034" cx="547.2" cy="228.4" r="15.8"/><polygon class="e30affe5-06c9-4f0e-8edc-7601881d78ec" points="556.2 227.1 559.6 223.5 563.1 219.9 564.5 224.4 565.9 228.8 561.1 228 556.2 227.1"/><circle class="fb3cf1a7-68c7-4fec-8e81-157b7ea87034" cx="667.9" cy="183.3" r="15.8"/><polygon class="e30affe5-06c9-4f0e-8edc-7601881d78ec" points="677.2 183.1 680.9 179.7 684.5 176.4 685.7 180.9 686.8 185.4 682 184.3 677.2 183.1"/><path class="fb3cf1a7-68c7-4fec-8e81-157b7ea87034" d="M858.1,232.5c8.2-1.6,15.5-2.7,22.7-4.4,10.1-2.6,20.2-5.6,27.4-13.9s9.8-17.6,12-27.5c1.3-6.1,2.4-12.2,4.5-18.4.7,3,1.2,5.9,1.9,8.8,2.1,8.6,3.7,17.3,6.7,25.5,4.1,11.5,12.7,19.1,24.4,22.4s21,5.2,32.1,7.8l-7.6,1.9c-8.6,2-17.3,3.5-25.6,6.1-12.7,4.1-21,13-24.7,25.7-2.6,9.3-4.4,18.8-6.6,28.2a3.4,3.4,0,0,1-1.4,2.4c-1.2-5.7-1.9-11.5-3.6-17.1-2.2-7.7-4.4-15.5-7.8-22.7s-10.2-13-18.3-15.5c-10.4-3.1-21-5.4-31.5-8Z"/><path class="afee4ce1-334c-43d5-9e17-2c66f9932e50" d="M589.6,108.5s26.1-66.3,92.5-26.1"/><path class="afee4ce1-334c-43d5-9e17-2c66f9932e50" d="M461.3,162.7s8.3-60.6,71.9-40.6"/><path class="fb3cf1a7-68c7-4fec-8e81-157b7ea87034" d="M821.8,506c4.1-.8,7.8-1.4,11.3-2.2,5.1-1.3,10.1-2.8,13.7-7s4.9-8.7,6-13.7a75.8,75.8,0,0,1,2.3-9.1l.9,4.3c1.1,4.3,1.9,8.6,3.3,12.7a17.4,17.4,0,0,0,12.2,11.2c5.2,1.5,10.5,2.6,16.1,3.9l-3.9,1c-4.2,1-8.6,1.7-12.7,3A18,18,0,0,0,858.7,523c-1.4,4.6-2.2,9.3-3.3,14.1a1.7,1.7,0,0,1-.8,1.2,81.7,81.7,0,0,0-1.7-8.6,76.6,76.6,0,0,0-3.9-11.4,14.8,14.8,0,0,0-9.2-7.7c-5.1-1.5-10.5-2.7-15.7-4Z"/><line class="a0c978ca-dca2-4313-8da5-3bba74a6c848" x1="420.9" y1="551.2" x2="420.9" y2="551.2"/><line class="abc51914-8e48-42cf-84d0-798c89db0bfe" x1="418.1" y1="565" x2="408.3" y2="613.2"/><line class="a0c978ca-dca2-4313-8da5-3bba74a6c848" x1="406.9" y1="620.1" x2="406.9" y2="620.1"/><line class="a0c978ca-dca2-4313-8da5-3bba74a6c848" x1="410.2" y1="547.9" x2="410.2" y2="547.9"/><line class="a9e59f87-f78d-4e0a-972c-a00fd8a31d8c" x1="407.7" y1="560.6" x2="398.6" y2="604.9"/><line class="a0c978ca-dca2-4313-8da5-3bba74a6c848" x1="397.4" y1="611.2" x2="397.4" y2="611.2"/><line class="a0c978ca-dca2-4313-8da5-3bba74a6c848" x1="399.5" y1="549.1" x2="399.5" y2="549.1"/><line class="a09647d1-4592-4385-8552-ee4fcdea956c" x1="397" y1="561.5" x2="390.6" y2="592.7"/><line class="a0c978ca-dca2-4313-8da5-3bba74a6c848" x1="389.4" y1="598.9" x2="389.4" y2="598.9"/><line class="a0c978ca-dca2-4313-8da5-3bba74a6c848" x1="390.7" y1="554.2" x2="390.7" y2="554.2"/><line class="a0c978ca-dca2-4313-8da5-3bba74a6c848" x1="387" y1="566.3" x2="387" y2="566.3"/><line class="e0e8c2b0-47d9-41eb-9b0f-6e0b0a30249d" x1="437.3" y1="280.6" x2="437.3" y2="280.6"/><line class="a1dc4f52-cdcb-40e9-b790-77afc2bb312c" x1="442.3" y1="266.9" x2="449.7" y2="246.3"/><line class="e0e8c2b0-47d9-41eb-9b0f-6e0b0a30249d" x1="452.2" y1="239.4" x2="452.2" y2="239.4"/><line class="e0e8c2b0-47d9-41eb-9b0f-6e0b0a30249d" x1="447.7" y1="269.6" x2="447.7" y2="269.6"/><line class="a1dc4f52-cdcb-40e9-b790-77afc2bb312c" x1="452.7" y1="255.8" x2="460.1" y2="235.2"/><line class="e0e8c2b0-47d9-41eb-9b0f-6e0b0a30249d" x1="462.6" y1="228.4" x2="462.6" y2="228.4"/><line class="e0e8c2b0-47d9-41eb-9b0f-6e0b0a30249d" x1="427.1" y1="288.6" x2="427.1" y2="288.6"/><line class="a1dc4f52-cdcb-40e9-b790-77afc2bb312c" x1="432.1" y1="274.8" x2="439.5" y2="254.2"/><line class="e0e8c2b0-47d9-41eb-9b0f-6e0b0a30249d" x1="442" y1="247.4" x2="442" y2="247.4"/><line class="e0e8c2b0-47d9-41eb-9b0f-6e0b0a30249d" x1="411.9" y1="308.1" x2="411.9" y2="308.1"/><line class="a1dc4f52-cdcb-40e9-b790-77afc2bb312c" x1="416.9" y1="294.4" x2="424.3" y2="273.8"/><line class="e0e8c2b0-47d9-41eb-9b0f-6e0b0a30249d" x1="426.8" y1="266.9" x2="426.8" y2="266.9"/><line class="e0e8c2b0-47d9-41eb-9b0f-6e0b0a30249d" x1="347" y1="460.3" x2="347" y2="460.3"/><line class="baadc96b-992c-4e58-8a0b-b08051b5697c" x1="351.5" y1="448.4" x2="412.1" y2="287.5"/><line class="e0e8c2b0-47d9-41eb-9b0f-6e0b0a30249d" x1="414.3" y1="281.5" x2="414.3" y2="281.5"/><line class="e0e8c2b0-47d9-41eb-9b0f-6e0b0a30249d" x1="342.3" y1="455.9" x2="342.3" y2="455.9"/><line class="f4fc0cf6-5458-471b-bc0f-d071454f6bb5" x1="346.5" y1="444" x2="387.1" y2="330.2"/><line class="e0e8c2b0-47d9-41eb-9b0f-6e0b0a30249d" x1="389.2" y1="324.2" x2="389.2" y2="324.2"/><line class="e0e8c2b0-47d9-41eb-9b0f-6e0b0a30249d" x1="336.4" y1="513.3" x2="336.4" y2="513.3"/><line class="baadc96b-992c-4e58-8a0b-b08051b5697c" x1="340.9" y1="501.4" x2="401.5" y2="340.5"/><line class="e0e8c2b0-47d9-41eb-9b0f-6e0b0a30249d" x1="403.7" y1="334.6" x2="403.7" y2="334.6"/><line class="e0e8c2b0-47d9-41eb-9b0f-6e0b0a30249d" x1="347.3" y1="503.9" x2="347.3" y2="503.9"/><line class="aac69d92-2765-426c-89a3-c09cd9fc33fd" x1="352.4" y1="491.2" x2="375.1" y2="434.5"/><line class="e0e8c2b0-47d9-41eb-9b0f-6e0b0a30249d" x1="377.7" y1="428.2" x2="377.7" y2="428.2"/><line class="e0e8c2b0-47d9-41eb-9b0f-6e0b0a30249d" x1="353.4" y1="513.9" x2="353.4" y2="513.9"/><line class="aa8b1230-5ecf-43c7-ae55-6c18f98d6001" x1="357.7" y1="503" x2="368.6" y2="476"/><line class="e0e8c2b0-47d9-41eb-9b0f-6e0b0a30249d" x1="370.7" y1="470.6" x2="370.7" y2="470.6"/><line class="e0e8c2b0-47d9-41eb-9b0f-6e0b0a30249d" x1="356.9" y1="578.5" x2="356.9" y2="578.5"/><line class="b7506e41-408a-4b85-80b7-0d86f9d28b74" x1="362.5" y1="564.4" x2="365.3" y2="557.4"/><line class="e0e8c2b0-47d9-41eb-9b0f-6e0b0a30249d" x1="368.2" y1="550.3" x2="368.2" y2="550.3"/><line class="e0e8c2b0-47d9-41eb-9b0f-6e0b0a30249d" x1="358.7" y1="589.6" x2="358.7" y2="589.6"/><line class="b7506e41-408a-4b85-80b7-0d86f9d28b74" x1="364.3" y1="575.6" x2="367.1" y2="568.5"/><line class="e0e8c2b0-47d9-41eb-9b0f-6e0b0a30249d" x1="370" y1="561.5" x2="370" y2="561.5"/><line class="e0e8c2b0-47d9-41eb-9b0f-6e0b0a30249d" x1="364.4" y1="596.3" x2="364.4" y2="596.3"/><line class="bd3ed66d-e372-44ff-b827-9eefaf5fa2fe" x1="369.3" y1="584.2" x2="376.6" y2="566"/><line class="e0e8c2b0-47d9-41eb-9b0f-6e0b0a30249d" x1="379" y1="559.9" x2="379" y2="559.9"/><line class="e0e8c2b0-47d9-41eb-9b0f-6e0b0a30249d" x1="366.3" y1="607.4" x2="366.3" y2="607.4"/><line class="bd3ed66d-e372-44ff-b827-9eefaf5fa2fe" x1="371.1" y1="595.3" x2="378.4" y2="577.2"/><line class="e0e8c2b0-47d9-41eb-9b0f-6e0b0a30249d" x1="380.8" y1="571.1" x2="380.8" y2="571.1"/><line class="e0e8c2b0-47d9-41eb-9b0f-6e0b0a30249d" x1="370" y1="622.2" x2="370" y2="622.2"/><line class="bd3ed66d-e372-44ff-b827-9eefaf5fa2fe" x1="374.6" y1="609.9" x2="381.5" y2="591.6"/><line class="e0e8c2b0-47d9-41eb-9b0f-6e0b0a30249d" x1="383.8" y1="585.5" x2="383.8" y2="585.5"/><line class="e0e8c2b0-47d9-41eb-9b0f-6e0b0a30249d" x1="374.8" y1="633.2" x2="374.8" y2="633.2"/><line class="bd3ed66d-e372-44ff-b827-9eefaf5fa2fe" x1="379.4" y1="620.9" x2="386.3" y2="602.6"/><line class="e0e8c2b0-47d9-41eb-9b0f-6e0b0a30249d" x1="388.6" y1="596.5" x2="388.6" y2="596.5"/><line class="e0e8c2b0-47d9-41eb-9b0f-6e0b0a30249d" x1="377.6" y1="643.3" x2="377.6" y2="643.3"/><line class="bd3ed66d-e372-44ff-b827-9eefaf5fa2fe" x1="382.2" y1="631.1" x2="389.1" y2="612.8"/><line class="e0e8c2b0-47d9-41eb-9b0f-6e0b0a30249d" x1="391.4" y1="606.7" x2="391.4" y2="606.7"/><line class="e0e8c2b0-47d9-41eb-9b0f-6e0b0a30249d" x1="384.8" y1="643.1" x2="384.8" y2="643.1"/><line class="bde1193c-34df-4d2c-8f20-27daaa61c398" x1="388.1" y1="633.1" x2="389.8" y2="628.1"/><line class="e0e8c2b0-47d9-41eb-9b0f-6e0b0a30249d" x1="391.4" y1="623.1" x2="391.4" y2="623.1"/><line class="e0e8c2b0-47d9-41eb-9b0f-6e0b0a30249d" x1="391.1" y1="653.1" x2="391.1" y2="653.1"/><line class="bde1193c-34df-4d2c-8f20-27daaa61c398" x1="394.4" y1="643.1" x2="396.1" y2="638.1"/><line class="e0e8c2b0-47d9-41eb-9b0f-6e0b0a30249d" x1="397.7" y1="633.1" x2="397.7" y2="633.1"/><line class="e0e8c2b0-47d9-41eb-9b0f-6e0b0a30249d" x1="395.7" y1="659.4" x2="395.7" y2="659.4"/><line class="bde1193c-34df-4d2c-8f20-27daaa61c398" x1="399" y1="649.4" x2="400.6" y2="644.4"/><line class="e0e8c2b0-47d9-41eb-9b0f-6e0b0a30249d" x1="402.3" y1="639.4" x2="402.3" y2="639.4"/><line class="e0e8c2b0-47d9-41eb-9b0f-6e0b0a30249d" x1="399" y1="669.1" x2="399" y2="669.1"/><line class="bde1193c-34df-4d2c-8f20-27daaa61c398" x1="402.3" y1="659.1" x2="403.9" y2="654.1"/><line class="e0e8c2b0-47d9-41eb-9b0f-6e0b0a30249d" x1="405.6" y1="649.1" x2="405.6" y2="649.1"/><line class="e0e8c2b0-47d9-41eb-9b0f-6e0b0a30249d" x1="405.6" y1="675.5" x2="405.6" y2="675.5"/><line class="bde1193c-34df-4d2c-8f20-27daaa61c398" x1="408.9" y1="665.5" x2="410.5" y2="660.5"/><line class="e0e8c2b0-47d9-41eb-9b0f-6e0b0a30249d" x1="412.2" y1="655.5" x2="412.2" y2="655.5"/><line class="e0e8c2b0-47d9-41eb-9b0f-6e0b0a30249d" x1="412.5" y1="682.2" x2="412.5" y2="682.2"/><line class="bde1193c-34df-4d2c-8f20-27daaa61c398" x1="415.8" y1="672.1" x2="417.4" y2="667.1"/><line class="e0e8c2b0-47d9-41eb-9b0f-6e0b0a30249d" x1="419" y1="662.1" x2="419" y2="662.1"/><path class="a05903f7-5783-4f54-9960-62910118af9e" d="M430.2,271a2.2,2.2,0,0,0,0-4.4c-2.8,0-2.8,4.4,0,4.4Z"/><path class="a05903f7-5783-4f54-9960-62910118af9e" d="M426.3,278.3a2.2,2.2,0,0,0,0-4.4,2.2,2.2,0,0,0,0,4.4Z"/><path class="a05903f7-5783-4f54-9960-62910118af9e" d="M435.3,269.3a2.2,2.2,0,0,0,0-4.4c-2.8,0-2.8,4.4,0,4.4Z"/><path class="a05903f7-5783-4f54-9960-62910118af9e" d="M451.5,249.7a2.2,2.2,0,0,0,0-4.4,2.2,2.2,0,0,0,0,4.4Z"/><path class="a05903f7-5783-4f54-9960-62910118af9e" d="M416.3,290.1c2.8,0,2.8-4.5,0-4.5s-2.9,4.5,0,4.5Z"/><path class="a05903f7-5783-4f54-9960-62910118af9e" d="M422.1,289.2c2.8,0,2.8-4.4,0-4.4a2.2,2.2,0,0,0,0,4.4Z"/><path class="a05903f7-5783-4f54-9960-62910118af9e" d="M412.7,302.7c2.9,0,2.9-4.5,0-4.5s-2.9,4.5,0,4.5Z"/><path class="a05903f7-5783-4f54-9960-62910118af9e" d="M406.1,301.8c2.8,0,2.8-4.4,0-4.4a2.2,2.2,0,0,0,0,4.4Z"/><path class="a05903f7-5783-4f54-9960-62910118af9e" d="M406.2,314.4a2.2,2.2,0,0,0,0-4.4c-2.8,0-2.8,4.4,0,4.4Z"/><path class="a05903f7-5783-4f54-9960-62910118af9e" d="M398.1,314.9c2.8,0,2.8-4.4,0-4.4a2.2,2.2,0,0,0,0,4.4Z"/><path class="a05903f7-5783-4f54-9960-62910118af9e" d="M390.6,335.9c2.8,0,2.8-4.5,0-4.5s-2.9,4.5,0,4.5Z"/><path class="a05903f7-5783-4f54-9960-62910118af9e" d="M379.5,356.3c2.9,0,2.9-4.5,0-4.5s-2.9,4.5,0,4.5Z"/><path class="a05903f7-5783-4f54-9960-62910118af9e" d="M378.1,371.4a2.2,2.2,0,0,0,0-4.4c-2.8,0-2.8,4.4,0,4.4Z"/><path class="a05903f7-5783-4f54-9960-62910118af9e" d="M371.7,381c2.8,0,2.8-4.5,0-4.5s-2.9,4.5,0,4.5Z"/><path class="a05903f7-5783-4f54-9960-62910118af9e" d="M375.4,385.7a2.2,2.2,0,0,0,0-4.4c-2.8,0-2.8,4.4,0,4.4Z"/><path class="a05903f7-5783-4f54-9960-62910118af9e" d="M364,392.5a2.2,2.2,0,0,0,0-4.4c-2.8,0-2.9,4.4,0,4.4Z"/><path class="a05903f7-5783-4f54-9960-62910118af9e" d="M368.6,394.8c2.9,0,2.9-4.5,0-4.5s-2.9,4.5,0,4.5Z"/><path class="a05903f7-5783-4f54-9960-62910118af9e" d="M361,404.3c2.8,0,2.8-4.5,0-4.5s-2.9,4.5,0,4.5Z"/><path class="a05903f7-5783-4f54-9960-62910118af9e" d="M365.5,408.2a2.2,2.2,0,0,0,0-4.4c-2.8,0-2.8,4.4,0,4.4Z"/><path class="a05903f7-5783-4f54-9960-62910118af9e" d="M370.1,410.8c2.9,0,2.9-4.5,0-4.5s-2.8,4.5,0,4.5Z"/><path class="a05903f7-5783-4f54-9960-62910118af9e" d="M358.7,416.5a2.2,2.2,0,0,0,0-4.4c-2.8,0-2.8,4.4,0,4.4Z"/><path class="a05903f7-5783-4f54-9960-62910118af9e" d="M355,430.7c2.9,0,2.9-4.5,0-4.5s-2.9,4.5,0,4.5Z"/><path class="a05903f7-5783-4f54-9960-62910118af9e" d="M362.8,420.6a2.2,2.2,0,0,0,0-4.4c-2.8,0-2.8,4.4,0,4.4Z"/><path class="a05903f7-5783-4f54-9960-62910118af9e" d="M367.6,425.4c2.9,0,2.9-4.5,0-4.5s-2.9,4.5,0,4.5Z"/><path class="a05903f7-5783-4f54-9960-62910118af9e" d="M361.1,434.2a2.2,2.2,0,0,0,0-4.4c-2.8,0-2.8,4.4,0,4.4Z"/><path class="a05903f7-5783-4f54-9960-62910118af9e" d="M365.2,439a2.2,2.2,0,0,0,0-4.4,2.2,2.2,0,0,0,0,4.4Z"/><path class="a05903f7-5783-4f54-9960-62910118af9e" d="M353.5,445c2.8,0,2.8-4.5,0-4.5s-2.9,4.5,0,4.5Z"/><path class="a05903f7-5783-4f54-9960-62910118af9e" d="M357.9,448.5a2.2,2.2,0,0,0,0-4.4,2.2,2.2,0,0,0,0,4.4Z"/><path class="a05903f7-5783-4f54-9960-62910118af9e" d="M363.7,451.6c2.8,0,2.8-4.4,0-4.4a2.2,2.2,0,0,0,0,4.4Z"/><path class="a05903f7-5783-4f54-9960-62910118af9e" d="M351.4,457.4c2.9,0,2.9-4.5,0-4.5s-2.8,4.5,0,4.5Z"/><path class="a05903f7-5783-4f54-9960-62910118af9e" d="M355.8,461.8a2.2,2.2,0,0,0,0-4.4c-2.8,0-2.8,4.4,0,4.4Z"/><path class="a05903f7-5783-4f54-9960-62910118af9e" d="M361.5,461.7c2.8,0,2.8-4.5,0-4.5s-2.9,4.5,0,4.5Z"/><path class="a05903f7-5783-4f54-9960-62910118af9e" d="M350.7,474.1c2.9,0,2.9-4.5,0-4.5s-2.8,4.5,0,4.5Z"/><path class="a05903f7-5783-4f54-9960-62910118af9e" d="M357.4,473.1c2.8,0,2.8-4.5,0-4.5s-2.9,4.5,0,4.5Z"/><path class="a05903f7-5783-4f54-9960-62910118af9e" d="M360.6,486.8a2.2,2.2,0,0,0,0-4.4,2.2,2.2,0,0,0,0,4.4Z"/><path class="a05903f7-5783-4f54-9960-62910118af9e" d="M350.9,486c2.9,0,2.9-4.5,0-4.5s-2.9,4.5,0,4.5Z"/><path class="a05903f7-5783-4f54-9960-62910118af9e" d="M356.5,499.1c2.9,0,2.9-4.5,0-4.5s-2.8,4.5,0,4.5Z"/><path class="a05903f7-5783-4f54-9960-62910118af9e" d="M351.2,502.5a2.2,2.2,0,0,0,0-4.4c-2.8,0-2.8,4.4,0,4.4Z"/><path class="a05903f7-5783-4f54-9960-62910118af9e" d="M367.4,570.9a2.2,2.2,0,0,0,0-4.4c-2.8,0-2.8,4.4,0,4.4Z"/><path class="a05903f7-5783-4f54-9960-62910118af9e" d="M371.3,580.1a2.2,2.2,0,0,0,0-4.4c-2.8,0-2.8,4.4,0,4.4Z"/><path class="a05903f7-5783-4f54-9960-62910118af9e" d="M375.9,590.5v-.2a1.1,1.1,0,0,0-.1-.8,2.2,2.2,0,0,0-.5-.8l-.7-.4a1.5,1.5,0,0,0-.9-.2h-.6a3.1,3.1,0,0,0-1,.5l-.3.5a2,2,0,0,0-.3,1.1v.2a1.1,1.1,0,0,0,.2.8,2,2,0,0,0,.4.8l.8.4a1.1,1.1,0,0,0,.8.2h.6l1-.5.3-.5a2,2,0,0,0,.3-1.1Z"/><path class="a05903f7-5783-4f54-9960-62910118af9e" d="M374.6,604.1c2.8,0,2.8-4.4,0-4.4a2.2,2.2,0,0,0,0,4.4Z"/><path class="a05903f7-5783-4f54-9960-62910118af9e" d="M380,606.8a2.2,2.2,0,0,0,0-4.4c-2.8,0-2.9,4.4,0,4.4Z"/><path class="a05903f7-5783-4f54-9960-62910118af9e" d="M379.3,616a2.2,2.2,0,0,0,0-4.4c-2.8,0-2.8,4.4,0,4.4Z"/><path class="a05903f7-5783-4f54-9960-62910118af9e" d="M385.3,629.1a2.2,2.2,0,0,0,0-4.4,2.2,2.2,0,0,0,0,4.4Z"/><path class="a05903f7-5783-4f54-9960-62910118af9e" d="M392.6,632.2a2.2,2.2,0,0,0,0-4.4,2.2,2.2,0,0,0,0,4.4Z"/><path class="a05903f7-5783-4f54-9960-62910118af9e" d="M394,639c2.8,0,2.8-4.4,0-4.4a2.2,2.2,0,0,0,0,4.4Z"/><path class="a05903f7-5783-4f54-9960-62910118af9e" d="M406.9,658.6c2.9,0,2.9-4.5,0-4.5s-2.9,4.5,0,4.5Z"/><path class="a05903f7-5783-4f54-9960-62910118af9e" d="M411.3,662.8a2.2,2.2,0,0,0,0-4.4c-2.8,0-2.8,4.4,0,4.4Z"/><path class="a05903f7-5783-4f54-9960-62910118af9e" d="M409.6,673.4c2.9,0,2.9-4.5,0-4.5s-2.8,4.5,0,4.5Z"/><path class="a05903f7-5783-4f54-9960-62910118af9e" d="M415.1,668.6c2.8,0,2.8-4.4,0-4.4a2.2,2.2,0,0,0,0,4.4Z"/><path class="fb3cf1a7-68c7-4fec-8e81-157b7ea87034" d="M1015.2,269.4c-1.3-4.2-1.3-8.4-4.5-11.3s-7-3-11.2-3.9l5.2-1.2c5.6-.9,8.5-4.4,9.4-9.7l1-4.2c.7,2.7,1.3,4.8,1.9,7,1.1,4.2,4.3,6,8.2,6.9l5.3,1.2-6.9,1.7c-4.1,1-6.1,3.9-7.1,7.8Z"/><path class="fb3cf1a7-68c7-4fec-8e81-157b7ea87034" d="M807.1,321.8c4.4-.9,8.4-1.5,12.2-2.4,5.5-1.4,10.9-3,14.8-7.5s5.3-9.5,6.5-14.8a89,89,0,0,1,2.4-9.9c.4,1.6.6,3.2,1,4.7,1.2,4.6,2,9.3,3.6,13.7,2.2,6.3,6.9,10.3,13.2,12.1s11.3,2.8,17.3,4.2l-4.1,1c-4.6,1.1-9.3,1.9-13.8,3.4-6.8,2.1-11.3,6.9-13.3,13.8-1.4,5-2.4,10.1-3.6,15.2a1.9,1.9,0,0,1-.8,1.3c-.6-3.1-1-6.2-1.8-9.3a88.3,88.3,0,0,0-4.3-12.2,15.6,15.6,0,0,0-9.8-8.3c-5.6-1.7-11.4-2.9-17-4.4Z"/><path class="a05903f7-5783-4f54-9960-62910118af9e" d="M396.7,324.3c3.3,0,3.3-5,0-5s-3.2,5,0,5Z"/><path class="a05903f7-5783-4f54-9960-62910118af9e" d="M386,347.8c3.2,0,3.2-5,0-5s-3.2,5,0,5Z"/><path class="a05903f7-5783-4f54-9960-62910118af9e" d="M383.5,360.9c3.2,0,3.2-5,0-5s-3.3,5,0,5Z"/><path class="a05903f7-5783-4f54-9960-62910118af9e" d="M372.7,367.5c3.3,0,3.3-5,0-5s-3.2,5,0,5Z"/><path class="a05903f7-5783-4f54-9960-62910118af9e" d="M443.2,263.3c3.2,0,3.2-5,0-5s-3.2,5,0,5Z"/><path class="a05903f7-5783-4f54-9960-62910118af9e" d="M442.2,256.4c3.2,0,3.2-5,0-5s-3.2,5,0,5Z"/></g><path class="a05903f7-5783-4f54-9960-62910118af9e" d="M111.9,333.5c28.5-1.9,57-2.9,85.5-3.6s56.9-.9,85.4-.9,57,.3,85.4.9,57,1.7,85.5,3.6c-28.5,1.8-57,2.8-85.5,3.5s-56.9,1-85.4,1-57-.4-85.4-1S140.4,335.3,111.9,333.5Z"/><path class="a05903f7-5783-4f54-9960-62910118af9e" d="M187.7,351.8c21.1-1.8,42.2-2.8,63.3-3.5s42.3-1,63.4-1,42.2.3,63.3,1,42.2,1.7,63.4,3.5c-21.2,1.9-42.3,2.9-63.4,3.6s-42.2.9-63.3.9-42.3-.3-63.4-.9S208.8,353.7,187.7,351.8Z"/></svg>